<?xml version="1.0" encoding="utf-8" standalone="no"?>
<!DOCTYPE svg PUBLIC "-//W3C//DTD SVG 1.1//EN"
  "http://www.w3.org/Graphics/SVG/1.1/DTD/svg11.dtd">
<svg xmlns:xlink="http://www.w3.org/1999/xlink" width="864pt" height="360pt" viewBox="0 0 864 360" xmlns="http://www.w3.org/2000/svg" version="1.1">
 <metadata>
  <rdf:RDF xmlns:dc="http://purl.org/dc/elements/1.1/" xmlns:cc="http://creativecommons.org/ns#" xmlns:rdf="http://www.w3.org/1999/02/22-rdf-syntax-ns#">
   <cc:Work>
    <dc:type rdf:resource="http://purl.org/dc/dcmitype/StillImage"/>
    <dc:date>2024-04-22T08:11:27.667717</dc:date>
    <dc:format>image/svg+xml</dc:format>
    <dc:creator>
     <cc:Agent>
      <dc:title>Matplotlib v3.8.4, https://matplotlib.org/</dc:title>
     </cc:Agent>
    </dc:creator>
   </cc:Work>
  </rdf:RDF>
 </metadata>
 <defs>
  <style type="text/css">*{stroke-linejoin: round; stroke-linecap: butt}</style>
 </defs>
 <g id="figure_1">
  <g id="patch_1">
   <path d="M 0 360 
L 864 360 
L 864 0 
L 0 0 
L 0 360 
z
" style="fill: none; opacity: 0"/>
  </g>
  <g id="axes_1">
   <g id="patch_2">
    <path d="M 108 320.4 
L 777.6 320.4 
L 777.6 43.2 
L 108 43.2 
L 108 320.4 
z
" style="fill: none; opacity: 0"/>
   </g>
   <g id="matplotlib.axis_1">
    <g id="xtick_1">
     <g id="line2d_1">
      <path d="M 162.105719 320.4 
L 162.105719 43.2 
" clip-path="url(#pcfba1529a3)" style="fill: none; stroke-dasharray: 5.12,1.28,0.8,1.28; stroke-dashoffset: 0; stroke: #b0b0b0; stroke-width: 0.8"/>
     </g>
     <g id="line2d_2">
      <defs>
       <path id="m29e394c84d" d="M 0 0 
L 0 3.5 
" style="stroke: #a9a9a9; stroke-width: 0.8"/>
      </defs>
      <g>
       <use xlink:href="#m29e394c84d" x="162.105719" y="320.4" style="fill: #a9a9a9; stroke: #a9a9a9; stroke-width: 0.8"/>
      </g>
     </g>
     <g id="text_1">
      <!-- 2021-09 -->
      <g style="fill: #a9a9a9" transform="translate(141.214313 334.998438) scale(0.1 -0.1)">
       <defs>
        <path id="DejaVuSans-32" d="M 1228 531 
L 3431 531 
L 3431 0 
L 469 0 
L 469 531 
Q 828 903 1448 1529 
Q 2069 2156 2228 2338 
Q 2531 2678 2651 2914 
Q 2772 3150 2772 3378 
Q 2772 3750 2511 3984 
Q 2250 4219 1831 4219 
Q 1534 4219 1204 4116 
Q 875 4013 500 3803 
L 500 4441 
Q 881 4594 1212 4672 
Q 1544 4750 1819 4750 
Q 2544 4750 2975 4387 
Q 3406 4025 3406 3419 
Q 3406 3131 3298 2873 
Q 3191 2616 2906 2266 
Q 2828 2175 2409 1742 
Q 1991 1309 1228 531 
z
" transform="scale(0.015625)"/>
        <path id="DejaVuSans-30" d="M 2034 4250 
Q 1547 4250 1301 3770 
Q 1056 3291 1056 2328 
Q 1056 1369 1301 889 
Q 1547 409 2034 409 
Q 2525 409 2770 889 
Q 3016 1369 3016 2328 
Q 3016 3291 2770 3770 
Q 2525 4250 2034 4250 
z
M 2034 4750 
Q 2819 4750 3233 4129 
Q 3647 3509 3647 2328 
Q 3647 1150 3233 529 
Q 2819 -91 2034 -91 
Q 1250 -91 836 529 
Q 422 1150 422 2328 
Q 422 3509 836 4129 
Q 1250 4750 2034 4750 
z
" transform="scale(0.015625)"/>
        <path id="DejaVuSans-31" d="M 794 531 
L 1825 531 
L 1825 4091 
L 703 3866 
L 703 4441 
L 1819 4666 
L 2450 4666 
L 2450 531 
L 3481 531 
L 3481 0 
L 794 0 
L 794 531 
z
" transform="scale(0.015625)"/>
        <path id="DejaVuSans-2d" d="M 313 2009 
L 1997 2009 
L 1997 1497 
L 313 1497 
L 313 2009 
z
" transform="scale(0.015625)"/>
        <path id="DejaVuSans-39" d="M 703 97 
L 703 672 
Q 941 559 1184 500 
Q 1428 441 1663 441 
Q 2288 441 2617 861 
Q 2947 1281 2994 2138 
Q 2813 1869 2534 1725 
Q 2256 1581 1919 1581 
Q 1219 1581 811 2004 
Q 403 2428 403 3163 
Q 403 3881 828 4315 
Q 1253 4750 1959 4750 
Q 2769 4750 3195 4129 
Q 3622 3509 3622 2328 
Q 3622 1225 3098 567 
Q 2575 -91 1691 -91 
Q 1453 -91 1209 -44 
Q 966 3 703 97 
z
M 1959 2075 
Q 2384 2075 2632 2365 
Q 2881 2656 2881 3163 
Q 2881 3666 2632 3958 
Q 2384 4250 1959 4250 
Q 1534 4250 1286 3958 
Q 1038 3666 1038 3163 
Q 1038 2656 1286 2365 
Q 1534 2075 1959 2075 
z
" transform="scale(0.015625)"/>
       </defs>
       <use xlink:href="#DejaVuSans-32"/>
       <use xlink:href="#DejaVuSans-30" x="63.623047"/>
       <use xlink:href="#DejaVuSans-32" x="127.246094"/>
       <use xlink:href="#DejaVuSans-31" x="190.869141"/>
       <use xlink:href="#DejaVuSans-2d" x="254.492188"/>
       <use xlink:href="#DejaVuSans-30" x="290.576172"/>
       <use xlink:href="#DejaVuSans-39" x="354.199219"/>
      </g>
     </g>
    </g>
    <g id="xtick_2">
     <g id="line2d_3">
      <path d="M 236.148319 320.4 
L 236.148319 43.2 
" clip-path="url(#pcfba1529a3)" style="fill: none; stroke-dasharray: 5.12,1.28,0.8,1.28; stroke-dashoffset: 0; stroke: #b0b0b0; stroke-width: 0.8"/>
     </g>
     <g id="line2d_4">
      <g>
       <use xlink:href="#m29e394c84d" x="236.148319" y="320.4" style="fill: #a9a9a9; stroke: #a9a9a9; stroke-width: 0.8"/>
      </g>
     </g>
     <g id="text_2">
      <!-- 2022-01 -->
      <g style="fill: #a9a9a9" transform="translate(215.256912 334.998438) scale(0.1 -0.1)">
       <use xlink:href="#DejaVuSans-32"/>
       <use xlink:href="#DejaVuSans-30" x="63.623047"/>
       <use xlink:href="#DejaVuSans-32" x="127.246094"/>
       <use xlink:href="#DejaVuSans-32" x="190.869141"/>
       <use xlink:href="#DejaVuSans-2d" x="254.492188"/>
       <use xlink:href="#DejaVuSans-30" x="290.576172"/>
       <use xlink:href="#DejaVuSans-31" x="354.199219"/>
      </g>
     </g>
    </g>
    <g id="xtick_3">
     <g id="line2d_5">
      <path d="M 308.977105 320.4 
L 308.977105 43.2 
" clip-path="url(#pcfba1529a3)" style="fill: none; stroke-dasharray: 5.12,1.28,0.8,1.28; stroke-dashoffset: 0; stroke: #b0b0b0; stroke-width: 0.8"/>
     </g>
     <g id="line2d_6">
      <g>
       <use xlink:href="#m29e394c84d" x="308.977105" y="320.4" style="fill: #a9a9a9; stroke: #a9a9a9; stroke-width: 0.8"/>
      </g>
     </g>
     <g id="text_3">
      <!-- 2022-05 -->
      <g style="fill: #a9a9a9" transform="translate(288.085699 334.998438) scale(0.1 -0.1)">
       <defs>
        <path id="DejaVuSans-35" d="M 691 4666 
L 3169 4666 
L 3169 4134 
L 1269 4134 
L 1269 2991 
Q 1406 3038 1543 3061 
Q 1681 3084 1819 3084 
Q 2600 3084 3056 2656 
Q 3513 2228 3513 1497 
Q 3513 744 3044 326 
Q 2575 -91 1722 -91 
Q 1428 -91 1123 -41 
Q 819 9 494 109 
L 494 744 
Q 775 591 1075 516 
Q 1375 441 1709 441 
Q 2250 441 2565 725 
Q 2881 1009 2881 1497 
Q 2881 1984 2565 2268 
Q 2250 2553 1709 2553 
Q 1456 2553 1204 2497 
Q 953 2441 691 2322 
L 691 4666 
z
" transform="scale(0.015625)"/>
       </defs>
       <use xlink:href="#DejaVuSans-32"/>
       <use xlink:href="#DejaVuSans-30" x="63.623047"/>
       <use xlink:href="#DejaVuSans-32" x="127.246094"/>
       <use xlink:href="#DejaVuSans-32" x="190.869141"/>
       <use xlink:href="#DejaVuSans-2d" x="254.492188"/>
       <use xlink:href="#DejaVuSans-30" x="290.576172"/>
       <use xlink:href="#DejaVuSans-35" x="354.199219"/>
      </g>
     </g>
    </g>
    <g id="xtick_4">
     <g id="line2d_7">
      <path d="M 383.626611 320.4 
L 383.626611 43.2 
" clip-path="url(#pcfba1529a3)" style="fill: none; stroke-dasharray: 5.12,1.28,0.8,1.28; stroke-dashoffset: 0; stroke: #b0b0b0; stroke-width: 0.8"/>
     </g>
     <g id="line2d_8">
      <g>
       <use xlink:href="#m29e394c84d" x="383.626611" y="320.4" style="fill: #a9a9a9; stroke: #a9a9a9; stroke-width: 0.8"/>
      </g>
     </g>
     <g id="text_4">
      <!-- 2022-09 -->
      <g style="fill: #a9a9a9" transform="translate(362.735205 334.998438) scale(0.1 -0.1)">
       <use xlink:href="#DejaVuSans-32"/>
       <use xlink:href="#DejaVuSans-30" x="63.623047"/>
       <use xlink:href="#DejaVuSans-32" x="127.246094"/>
       <use xlink:href="#DejaVuSans-32" x="190.869141"/>
       <use xlink:href="#DejaVuSans-2d" x="254.492188"/>
       <use xlink:href="#DejaVuSans-30" x="290.576172"/>
       <use xlink:href="#DejaVuSans-39" x="354.199219"/>
      </g>
     </g>
    </g>
    <g id="xtick_5">
     <g id="line2d_9">
      <path d="M 457.669211 320.4 
L 457.669211 43.2 
" clip-path="url(#pcfba1529a3)" style="fill: none; stroke-dasharray: 5.12,1.28,0.8,1.28; stroke-dashoffset: 0; stroke: #b0b0b0; stroke-width: 0.8"/>
     </g>
     <g id="line2d_10">
      <g>
       <use xlink:href="#m29e394c84d" x="457.669211" y="320.4" style="fill: #a9a9a9; stroke: #a9a9a9; stroke-width: 0.8"/>
      </g>
     </g>
     <g id="text_5">
      <!-- 2023-01 -->
      <g style="fill: #a9a9a9" transform="translate(436.777804 334.998438) scale(0.1 -0.1)">
       <defs>
        <path id="DejaVuSans-33" d="M 2597 2516 
Q 3050 2419 3304 2112 
Q 3559 1806 3559 1356 
Q 3559 666 3084 287 
Q 2609 -91 1734 -91 
Q 1441 -91 1130 -33 
Q 819 25 488 141 
L 488 750 
Q 750 597 1062 519 
Q 1375 441 1716 441 
Q 2309 441 2620 675 
Q 2931 909 2931 1356 
Q 2931 1769 2642 2001 
Q 2353 2234 1838 2234 
L 1294 2234 
L 1294 2753 
L 1863 2753 
Q 2328 2753 2575 2939 
Q 2822 3125 2822 3475 
Q 2822 3834 2567 4026 
Q 2313 4219 1838 4219 
Q 1578 4219 1281 4162 
Q 984 4106 628 3988 
L 628 4550 
Q 988 4650 1302 4700 
Q 1616 4750 1894 4750 
Q 2613 4750 3031 4423 
Q 3450 4097 3450 3541 
Q 3450 3153 3228 2886 
Q 3006 2619 2597 2516 
z
" transform="scale(0.015625)"/>
       </defs>
       <use xlink:href="#DejaVuSans-32"/>
       <use xlink:href="#DejaVuSans-30" x="63.623047"/>
       <use xlink:href="#DejaVuSans-32" x="127.246094"/>
       <use xlink:href="#DejaVuSans-33" x="190.869141"/>
       <use xlink:href="#DejaVuSans-2d" x="254.492188"/>
       <use xlink:href="#DejaVuSans-30" x="290.576172"/>
       <use xlink:href="#DejaVuSans-31" x="354.199219"/>
      </g>
     </g>
    </g>
    <g id="xtick_6">
     <g id="line2d_11">
      <path d="M 530.497997 320.4 
L 530.497997 43.2 
" clip-path="url(#pcfba1529a3)" style="fill: none; stroke-dasharray: 5.12,1.28,0.8,1.28; stroke-dashoffset: 0; stroke: #b0b0b0; stroke-width: 0.8"/>
     </g>
     <g id="line2d_12">
      <g>
       <use xlink:href="#m29e394c84d" x="530.497997" y="320.4" style="fill: #a9a9a9; stroke: #a9a9a9; stroke-width: 0.8"/>
      </g>
     </g>
     <g id="text_6">
      <!-- 2023-05 -->
      <g style="fill: #a9a9a9" transform="translate(509.606591 334.998438) scale(0.1 -0.1)">
       <use xlink:href="#DejaVuSans-32"/>
       <use xlink:href="#DejaVuSans-30" x="63.623047"/>
       <use xlink:href="#DejaVuSans-32" x="127.246094"/>
       <use xlink:href="#DejaVuSans-33" x="190.869141"/>
       <use xlink:href="#DejaVuSans-2d" x="254.492188"/>
       <use xlink:href="#DejaVuSans-30" x="290.576172"/>
       <use xlink:href="#DejaVuSans-35" x="354.199219"/>
      </g>
     </g>
    </g>
    <g id="xtick_7">
     <g id="line2d_13">
      <path d="M 605.147503 320.4 
L 605.147503 43.2 
" clip-path="url(#pcfba1529a3)" style="fill: none; stroke-dasharray: 5.12,1.28,0.8,1.28; stroke-dashoffset: 0; stroke: #b0b0b0; stroke-width: 0.8"/>
     </g>
     <g id="line2d_14">
      <g>
       <use xlink:href="#m29e394c84d" x="605.147503" y="320.4" style="fill: #a9a9a9; stroke: #a9a9a9; stroke-width: 0.8"/>
      </g>
     </g>
     <g id="text_7">
      <!-- 2023-09 -->
      <g style="fill: #a9a9a9" transform="translate(584.256097 334.998438) scale(0.1 -0.1)">
       <use xlink:href="#DejaVuSans-32"/>
       <use xlink:href="#DejaVuSans-30" x="63.623047"/>
       <use xlink:href="#DejaVuSans-32" x="127.246094"/>
       <use xlink:href="#DejaVuSans-33" x="190.869141"/>
       <use xlink:href="#DejaVuSans-2d" x="254.492188"/>
       <use xlink:href="#DejaVuSans-30" x="290.576172"/>
       <use xlink:href="#DejaVuSans-39" x="354.199219"/>
      </g>
     </g>
    </g>
    <g id="xtick_8">
     <g id="line2d_15">
      <path d="M 679.190102 320.4 
L 679.190102 43.2 
" clip-path="url(#pcfba1529a3)" style="fill: none; stroke-dasharray: 5.12,1.28,0.8,1.28; stroke-dashoffset: 0; stroke: #b0b0b0; stroke-width: 0.8"/>
     </g>
     <g id="line2d_16">
      <g>
       <use xlink:href="#m29e394c84d" x="679.190102" y="320.4" style="fill: #a9a9a9; stroke: #a9a9a9; stroke-width: 0.8"/>
      </g>
     </g>
     <g id="text_8">
      <!-- 2024-01 -->
      <g style="fill: #a9a9a9" transform="translate(658.298696 334.998438) scale(0.1 -0.1)">
       <defs>
        <path id="DejaVuSans-34" d="M 2419 4116 
L 825 1625 
L 2419 1625 
L 2419 4116 
z
M 2253 4666 
L 3047 4666 
L 3047 1625 
L 3713 1625 
L 3713 1100 
L 3047 1100 
L 3047 0 
L 2419 0 
L 2419 1100 
L 313 1100 
L 313 1709 
L 2253 4666 
z
" transform="scale(0.015625)"/>
       </defs>
       <use xlink:href="#DejaVuSans-32"/>
       <use xlink:href="#DejaVuSans-30" x="63.623047"/>
       <use xlink:href="#DejaVuSans-32" x="127.246094"/>
       <use xlink:href="#DejaVuSans-34" x="190.869141"/>
       <use xlink:href="#DejaVuSans-2d" x="254.492188"/>
       <use xlink:href="#DejaVuSans-30" x="290.576172"/>
       <use xlink:href="#DejaVuSans-31" x="354.199219"/>
      </g>
     </g>
    </g>
    <g id="xtick_9">
     <g id="line2d_17">
      <path d="M 752.625795 320.4 
L 752.625795 43.2 
" clip-path="url(#pcfba1529a3)" style="fill: none; stroke-dasharray: 5.12,1.28,0.8,1.28; stroke-dashoffset: 0; stroke: #b0b0b0; stroke-width: 0.8"/>
     </g>
     <g id="line2d_18">
      <g>
       <use xlink:href="#m29e394c84d" x="752.625795" y="320.4" style="fill: #a9a9a9; stroke: #a9a9a9; stroke-width: 0.8"/>
      </g>
     </g>
     <g id="text_9">
      <!-- 2024-05 -->
      <g style="fill: #a9a9a9" transform="translate(731.734389 334.998438) scale(0.1 -0.1)">
       <use xlink:href="#DejaVuSans-32"/>
       <use xlink:href="#DejaVuSans-30" x="63.623047"/>
       <use xlink:href="#DejaVuSans-32" x="127.246094"/>
       <use xlink:href="#DejaVuSans-34" x="190.869141"/>
       <use xlink:href="#DejaVuSans-2d" x="254.492188"/>
       <use xlink:href="#DejaVuSans-30" x="290.576172"/>
       <use xlink:href="#DejaVuSans-35" x="354.199219"/>
      </g>
     </g>
    </g>
   </g>
   <g id="matplotlib.axis_2">
    <g id="ytick_1">
     <g id="line2d_19">
      <path d="M 108 307.842225 
L 777.6 307.842225 
" clip-path="url(#pcfba1529a3)" style="fill: none; stroke-dasharray: 5.12,1.28,0.8,1.28; stroke-dashoffset: 0; stroke: #b0b0b0; stroke-width: 0.8"/>
     </g>
     <g id="line2d_20">
      <defs>
       <path id="me4def4f104" d="M 0 0 
L -3.5 0 
" style="stroke: #a9a9a9; stroke-width: 0.8"/>
      </defs>
      <g>
       <use xlink:href="#me4def4f104" x="108" y="307.842225" style="fill: #a9a9a9; stroke: #a9a9a9; stroke-width: 0.8"/>
      </g>
     </g>
     <g id="text_10">
      <!-- 0 -->
      <g style="fill: #a9a9a9" transform="translate(94.6375 311.641444) scale(0.1 -0.1)">
       <use xlink:href="#DejaVuSans-30"/>
      </g>
     </g>
    </g>
    <g id="ytick_2">
     <g id="line2d_21">
      <path d="M 108 274.062064 
L 777.6 274.062064 
" clip-path="url(#pcfba1529a3)" style="fill: none; stroke-dasharray: 5.12,1.28,0.8,1.28; stroke-dashoffset: 0; stroke: #b0b0b0; stroke-width: 0.8"/>
     </g>
     <g id="line2d_22">
      <g>
       <use xlink:href="#me4def4f104" x="108" y="274.062064" style="fill: #a9a9a9; stroke: #a9a9a9; stroke-width: 0.8"/>
      </g>
     </g>
     <g id="text_11">
      <!-- 800 -->
      <g style="fill: #a9a9a9" transform="translate(81.9125 277.861283) scale(0.1 -0.1)">
       <defs>
        <path id="DejaVuSans-38" d="M 2034 2216 
Q 1584 2216 1326 1975 
Q 1069 1734 1069 1313 
Q 1069 891 1326 650 
Q 1584 409 2034 409 
Q 2484 409 2743 651 
Q 3003 894 3003 1313 
Q 3003 1734 2745 1975 
Q 2488 2216 2034 2216 
z
M 1403 2484 
Q 997 2584 770 2862 
Q 544 3141 544 3541 
Q 544 4100 942 4425 
Q 1341 4750 2034 4750 
Q 2731 4750 3128 4425 
Q 3525 4100 3525 3541 
Q 3525 3141 3298 2862 
Q 3072 2584 2669 2484 
Q 3125 2378 3379 2068 
Q 3634 1759 3634 1313 
Q 3634 634 3220 271 
Q 2806 -91 2034 -91 
Q 1263 -91 848 271 
Q 434 634 434 1313 
Q 434 1759 690 2068 
Q 947 2378 1403 2484 
z
M 1172 3481 
Q 1172 3119 1398 2916 
Q 1625 2713 2034 2713 
Q 2441 2713 2670 2916 
Q 2900 3119 2900 3481 
Q 2900 3844 2670 4047 
Q 2441 4250 2034 4250 
Q 1625 4250 1398 4047 
Q 1172 3844 1172 3481 
z
" transform="scale(0.015625)"/>
       </defs>
       <use xlink:href="#DejaVuSans-38"/>
       <use xlink:href="#DejaVuSans-30" x="63.623047"/>
       <use xlink:href="#DejaVuSans-30" x="127.246094"/>
      </g>
     </g>
    </g>
    <g id="ytick_3">
     <g id="line2d_23">
      <path d="M 108 240.281903 
L 777.6 240.281903 
" clip-path="url(#pcfba1529a3)" style="fill: none; stroke-dasharray: 5.12,1.28,0.8,1.28; stroke-dashoffset: 0; stroke: #b0b0b0; stroke-width: 0.8"/>
     </g>
     <g id="line2d_24">
      <g>
       <use xlink:href="#me4def4f104" x="108" y="240.281903" style="fill: #a9a9a9; stroke: #a9a9a9; stroke-width: 0.8"/>
      </g>
     </g>
     <g id="text_12">
      <!-- 1600 -->
      <g style="fill: #a9a9a9" transform="translate(75.55 244.081122) scale(0.1 -0.1)">
       <defs>
        <path id="DejaVuSans-36" d="M 2113 2584 
Q 1688 2584 1439 2293 
Q 1191 2003 1191 1497 
Q 1191 994 1439 701 
Q 1688 409 2113 409 
Q 2538 409 2786 701 
Q 3034 994 3034 1497 
Q 3034 2003 2786 2293 
Q 2538 2584 2113 2584 
z
M 3366 4563 
L 3366 3988 
Q 3128 4100 2886 4159 
Q 2644 4219 2406 4219 
Q 1781 4219 1451 3797 
Q 1122 3375 1075 2522 
Q 1259 2794 1537 2939 
Q 1816 3084 2150 3084 
Q 2853 3084 3261 2657 
Q 3669 2231 3669 1497 
Q 3669 778 3244 343 
Q 2819 -91 2113 -91 
Q 1303 -91 875 529 
Q 447 1150 447 2328 
Q 447 3434 972 4092 
Q 1497 4750 2381 4750 
Q 2619 4750 2861 4703 
Q 3103 4656 3366 4563 
z
" transform="scale(0.015625)"/>
       </defs>
       <use xlink:href="#DejaVuSans-31"/>
       <use xlink:href="#DejaVuSans-36" x="63.623047"/>
       <use xlink:href="#DejaVuSans-30" x="127.246094"/>
       <use xlink:href="#DejaVuSans-30" x="190.869141"/>
      </g>
     </g>
    </g>
    <g id="ytick_4">
     <g id="line2d_25">
      <path d="M 108 206.501743 
L 777.6 206.501743 
" clip-path="url(#pcfba1529a3)" style="fill: none; stroke-dasharray: 5.12,1.28,0.8,1.28; stroke-dashoffset: 0; stroke: #b0b0b0; stroke-width: 0.8"/>
     </g>
     <g id="line2d_26">
      <g>
       <use xlink:href="#me4def4f104" x="108" y="206.501743" style="fill: #a9a9a9; stroke: #a9a9a9; stroke-width: 0.8"/>
      </g>
     </g>
     <g id="text_13">
      <!-- 2400 -->
      <g style="fill: #a9a9a9" transform="translate(75.55 210.300961) scale(0.1 -0.1)">
       <use xlink:href="#DejaVuSans-32"/>
       <use xlink:href="#DejaVuSans-34" x="63.623047"/>
       <use xlink:href="#DejaVuSans-30" x="127.246094"/>
       <use xlink:href="#DejaVuSans-30" x="190.869141"/>
      </g>
     </g>
    </g>
    <g id="ytick_5">
     <g id="line2d_27">
      <path d="M 108 172.721582 
L 777.6 172.721582 
" clip-path="url(#pcfba1529a3)" style="fill: none; stroke-dasharray: 5.12,1.28,0.8,1.28; stroke-dashoffset: 0; stroke: #b0b0b0; stroke-width: 0.8"/>
     </g>
     <g id="line2d_28">
      <g>
       <use xlink:href="#me4def4f104" x="108" y="172.721582" style="fill: #a9a9a9; stroke: #a9a9a9; stroke-width: 0.8"/>
      </g>
     </g>
     <g id="text_14">
      <!-- 3200 -->
      <g style="fill: #a9a9a9" transform="translate(75.55 176.520801) scale(0.1 -0.1)">
       <use xlink:href="#DejaVuSans-33"/>
       <use xlink:href="#DejaVuSans-32" x="63.623047"/>
       <use xlink:href="#DejaVuSans-30" x="127.246094"/>
       <use xlink:href="#DejaVuSans-30" x="190.869141"/>
      </g>
     </g>
    </g>
    <g id="ytick_6">
     <g id="line2d_29">
      <path d="M 108 138.941421 
L 777.6 138.941421 
" clip-path="url(#pcfba1529a3)" style="fill: none; stroke-dasharray: 5.12,1.28,0.8,1.28; stroke-dashoffset: 0; stroke: #b0b0b0; stroke-width: 0.8"/>
     </g>
     <g id="line2d_30">
      <g>
       <use xlink:href="#me4def4f104" x="108" y="138.941421" style="fill: #a9a9a9; stroke: #a9a9a9; stroke-width: 0.8"/>
      </g>
     </g>
     <g id="text_15">
      <!-- 4000 -->
      <g style="fill: #a9a9a9" transform="translate(75.55 142.74064) scale(0.1 -0.1)">
       <use xlink:href="#DejaVuSans-34"/>
       <use xlink:href="#DejaVuSans-30" x="63.623047"/>
       <use xlink:href="#DejaVuSans-30" x="127.246094"/>
       <use xlink:href="#DejaVuSans-30" x="190.869141"/>
      </g>
     </g>
    </g>
    <g id="ytick_7">
     <g id="line2d_31">
      <path d="M 108 105.16126 
L 777.6 105.16126 
" clip-path="url(#pcfba1529a3)" style="fill: none; stroke-dasharray: 5.12,1.28,0.8,1.28; stroke-dashoffset: 0; stroke: #b0b0b0; stroke-width: 0.8"/>
     </g>
     <g id="line2d_32">
      <g>
       <use xlink:href="#me4def4f104" x="108" y="105.16126" style="fill: #a9a9a9; stroke: #a9a9a9; stroke-width: 0.8"/>
      </g>
     </g>
     <g id="text_16">
      <!-- 4800 -->
      <g style="fill: #a9a9a9" transform="translate(75.55 108.960479) scale(0.1 -0.1)">
       <use xlink:href="#DejaVuSans-34"/>
       <use xlink:href="#DejaVuSans-38" x="63.623047"/>
       <use xlink:href="#DejaVuSans-30" x="127.246094"/>
       <use xlink:href="#DejaVuSans-30" x="190.869141"/>
      </g>
     </g>
    </g>
    <g id="ytick_8">
     <g id="line2d_33">
      <path d="M 108 71.381099 
L 777.6 71.381099 
" clip-path="url(#pcfba1529a3)" style="fill: none; stroke-dasharray: 5.12,1.28,0.8,1.28; stroke-dashoffset: 0; stroke: #b0b0b0; stroke-width: 0.8"/>
     </g>
     <g id="line2d_34">
      <g>
       <use xlink:href="#me4def4f104" x="108" y="71.381099" style="fill: #a9a9a9; stroke: #a9a9a9; stroke-width: 0.8"/>
      </g>
     </g>
     <g id="text_17">
      <!-- 5600 -->
      <g style="fill: #a9a9a9" transform="translate(75.55 75.180318) scale(0.1 -0.1)">
       <use xlink:href="#DejaVuSans-35"/>
       <use xlink:href="#DejaVuSans-36" x="63.623047"/>
       <use xlink:href="#DejaVuSans-30" x="127.246094"/>
       <use xlink:href="#DejaVuSans-30" x="190.869141"/>
      </g>
     </g>
    </g>
   </g>
   <g id="line2d_35">
    <path d="M 138.436364 307.71555 
L 142.077803 307.419973 
L 142.68471 307.166622 
L 144.505429 306.955496 
L 148.146868 306.237668 
L 151.788308 305.942091 
L 152.395214 305.646515 
L 153.002121 305.477614 
L 153.609027 304.71756 
L 154.215934 304.295308 
L 154.822841 302.986327 
L 155.429747 302.901877 
L 156.036654 302.437399 
L 157.250467 301.846247 
L 159.678093 299.988338 
L 160.891906 299.481635 
L 161.498813 299.059383 
L 163.926439 298.003753 
L 164.533345 297.074799 
L 165.747159 296.230295 
L 166.354065 295.934718 
L 172.423131 295.090214 
L 173.030037 294.794638 
L 177.278383 294.456836 
L 179.099103 293.992359 
L 184.561262 293.274531 
L 185.168168 292.936729 
L 185.775075 292.852279 
L 186.381981 292.598928 
L 187.595794 292.387802 
L 188.202701 292.345576 
L 189.416514 292.092225 
L 190.023421 292.05 
L 192.451047 291.458847 
L 194.271767 291.289946 
L 195.48558 291.163271 
L 196.092486 290.99437 
L 196.699393 290.952145 
L 198.520112 290.403217 
L 199.733925 290.318767 
L 200.947739 290.149866 
L 202.161552 289.896515 
L 202.768458 289.727614 
L 203.375365 288.925335 
L 205.196084 288.249732 
L 207.016804 287.785255 
L 207.623711 287.489678 
L 208.230617 287.447453 
L 211.26515 286.602949 
L 212.478963 286.518499 
L 213.692776 286.265147 
L 216.120402 285.673995 
L 216.727309 285.631769 
L 217.941122 285.082842 
L 218.548029 284.998391 
L 219.154935 284.702815 
L 225.224001 283.816086 
L 228.258533 282.971582 
L 228.86544 282.591555 
L 231.293066 281.958177 
L 233.720692 280.733646 
L 235.541412 280.311394 
L 236.148319 280.226944 
L 236.755225 279.931367 
L 237.969038 279.720241 
L 239.182851 279.171314 
L 242.217384 278.41126 
L 244.038104 277.946783 
L 244.64501 277.693432 
L 245.251917 277.566756 
L 245.858824 277.313405 
L 246.46573 277.228954 
L 247.072637 276.933378 
L 247.679543 276.764477 
L 248.893356 276.680027 
L 250.107169 276.257775 
L 251.320983 276.173324 
L 251.927889 275.877748 
L 253.141702 275.708847 
L 253.748609 275.497721 
L 254.962422 275.455496 
L 257.390048 275.15992 
L 258.603861 274.568767 
L 265.279833 271.739678 
L 265.88674 271.401877 
L 266.493646 270.768499 
L 267.707459 268.952815 
L 268.314366 268.783914 
L 268.921273 268.783914 
L 270.135086 267.897185 
L 270.741992 267.728284 
L 271.348899 267.432708 
L 271.955805 267.306032 
L 272.562712 266.757105 
L 273.169618 266.588204 
L 274.990338 265.701475 
L 276.204151 264.012466 
L 276.811058 263.63244 
L 277.417964 262.619035 
L 278.024871 261.985657 
L 278.631777 261.69008 
L 279.238684 261.52118 
L 281.66631 260.085523 
L 282.880123 259.114343 
L 283.48703 258.734316 
L 284.093936 257.847587 
L 284.700843 256.496381 
L 285.307749 255.609651 
L 285.914656 255.145174 
L 286.521563 254.891823 
L 288.949189 252.780563 
L 290.163002 251.809383 
L 290.769908 251.302681 
L 291.376815 250.500402 
L 292.590628 249.444772 
L 295.018254 247.88244 
L 295.625161 247.375737 
L 296.232067 247.249062 
L 296.838974 246.99571 
L 298.659694 245.982306 
L 300.480413 244.842225 
L 302.301133 243.068767 
L 302.90804 242.68874 
L 303.514946 242.519839 
L 304.121853 242.224263 
L 305.335666 241.421984 
L 305.942572 241.084182 
L 306.549479 240.999732 
L 311.404731 238.086193 
L 313.225451 237.115013 
L 313.832357 236.566086 
L 316.259984 235.806032 
L 316.86689 235.38378 
L 317.473797 235.257105 
L 318.68761 234.834853 
L 320.50833 234.117024 
L 322.329049 233.441421 
L 323.542862 233.230295 
L 324.756675 232.174665 
L 326.577395 231.330161 
L 327.791208 230.612332 
L 329.005021 230.274531 
L 329.611928 229.894504 
L 330.218834 229.725603 
L 332.039554 228.585523 
L 335.074087 227.867694 
L 336.894806 226.812064 
L 337.501713 226.727614 
L 338.10862 226.516488 
L 339.322433 226.263137 
L 341.143152 224.91193 
L 342.963872 224.489678 
L 343.570779 224.278552 
L 344.177685 223.814075 
L 347.819124 222.631769 
L 348.426031 222.589544 
L 349.032938 222.420643 
L 350.246751 221.913941 
L 354.495097 220.436059 
L 355.70891 220.267158 
L 356.315816 220.098257 
L 356.922723 219.802681 
L 357.529629 219.676005 
L 359.350349 218.831501 
L 361.171069 217.944772 
L 361.777975 217.52252 
L 362.384882 217.353619 
L 364.205601 216.38244 
L 365.419414 216.086863 
L 366.633228 215.453485 
L 367.847041 215.115684 
L 368.453947 215.031233 
L 369.66776 214.313405 
L 370.274667 214.186729 
L 371.48848 213.680027 
L 372.095387 213.553351 
L 372.702293 213.21555 
L 375.129919 212.835523 
L 376.343732 212.24437 
L 376.950639 211.737668 
L 377.557546 210.682038 
L 379.378265 210.344236 
L 381.805891 209.07748 
L 382.412798 208.950804 
L 386.661144 206.923995 
L 387.874957 206.586193 
L 389.08877 206.332842 
L 390.302583 205.741689 
L 390.90949 205.488338 
L 391.516396 205.403887 
L 393.944022 204.348257 
L 395.764742 203.208177 
L 396.371649 203.123727 
L 396.978555 202.912601 
L 397.585462 202.870375 
L 400.619995 202.110322 
L 401.226901 201.645845 
L 402.440714 201.223592 
L 404.261434 200.63244 
L 404.86834 200.252413 
L 405.475247 200.083512 
L 406.082154 199.66126 
L 406.68906 199.407909 
L 407.902873 198.774531 
L 410.330499 198.014477 
L 410.937406 197.718901 
L 412.758126 196.325469 
L 413.365032 196.198794 
L 414.578845 195.269839 
L 415.185752 195.143164 
L 415.792658 194.214209 
L 416.399565 193.960858 
L 417.006471 193.496381 
L 417.613378 193.41193 
L 418.827191 192.694102 
L 419.434098 192.567426 
L 420.041004 192.314075 
L 420.647911 191.849598 
L 421.254817 191.638472 
L 423.075537 190.413941 
L 425.503163 189.18941 
L 426.11007 189.10496 
L 427.323883 188.556032 
L 427.930789 188.218231 
L 428.537696 187.204826 
L 429.144603 186.655898 
L 429.751509 186.318097 
L 430.358416 186.191421 
L 431.572229 185.431367 
L 432.179135 185.304692 
L 433.392948 184.713539 
L 435.213668 183.953485 
L 436.427481 183.108981 
L 437.641294 181.842225 
L 440.675827 179.646515 
L 441.88964 178.675335 
L 442.496547 178.421984 
L 443.103453 177.746381 
L 443.71036 177.281903 
L 444.924173 176.859651 
L 446.137986 176.057373 
L 446.744893 175.761796 
L 447.351799 175.592895 
L 447.958706 175.170643 
L 448.565612 175.043968 
L 450.386332 174.072788 
L 451.600145 173.35496 
L 457.669211 171.201475 
L 458.276117 170.652547 
L 460.096837 169.976944 
L 461.31065 169.596917 
L 461.917556 169.13244 
L 464.952089 167.570107 
L 466.165902 165.205496 
L 467.379715 163.769839 
L 468.593529 163.052011 
L 470.414248 162.334182 
L 471.021155 162.249732 
L 471.628061 161.91193 
L 473.448781 161.363003 
L 475.876407 160.265147 
L 476.483314 159.885121 
L 477.697127 159.462869 
L 481.338566 157.351609 
L 481.945473 156.718231 
L 483.159286 156.084853 
L 486.800725 154.184718 
L 487.407632 153.931367 
L 488.014538 153.55134 
L 488.621445 153.424665 
L 489.228351 152.960188 
L 492.262884 151.989008 
L 492.869791 151.820107 
L 493.476697 151.524531 
L 494.083604 151.102279 
L 495.297417 150.764477 
L 496.51123 150.3 
L 497.118136 149.835523 
L 498.33195 149.455496 
L 498.938856 149.15992 
L 499.545763 148.991019 
L 500.759576 148.146515 
L 501.973389 147.639812 
L 503.187202 146.710858 
L 504.401015 146.288606 
L 505.007922 145.781903 
L 505.614828 145.697453 
L 506.828641 144.810724 
L 508.042454 144.219571 
L 508.649361 143.96622 
L 509.256268 143.375067 
L 512.897707 142.066086 
L 514.718427 141.263807 
L 516.539146 140.714879 
L 517.752959 140.545979 
L 518.359866 140.292627 
L 518.966772 140.208177 
L 520.180586 139.701475 
L 520.787492 139.659249 
L 523.215118 138.77252 
L 525.035838 137.547989 
L 525.642744 137.294638 
L 526.856558 136.66126 
L 527.463464 136.450134 
L 531.104903 134.46555 
L 531.71181 134.338874 
L 533.53253 133.325469 
L 535.353249 132.734316 
L 535.960156 132.480965 
L 537.173969 132.185389 
L 540.208502 131.214209 
L 542.029221 130.918633 
L 544.456848 130.158579 
L 545.063754 129.905228 
L 545.670661 129.820777 
L 546.277567 129.525201 
L 547.49138 129.27185 
L 548.705194 128.849598 
L 549.3121 128.638472 
L 550.525913 128.511796 
L 551.739726 128.21622 
L 553.560446 127.920643 
L 554.167352 127.709517 
L 555.381166 127.582842 
L 558.415698 126.822788 
L 559.629511 126.527212 
L 560.236418 126.18941 
L 563.270951 125.429357 
L 563.877857 125.302681 
L 565.09167 124.880429 
L 566.91239 124.247051 
L 567.519297 124.162601 
L 569.340016 123.529223 
L 569.946923 123.529223 
L 571.160736 123.106971 
L 571.767643 122.515818 
L 572.374549 122.220241 
L 573.588362 121.840214 
L 576.015988 120.91126 
L 576.622895 120.784584 
L 577.229802 120.404558 
L 577.836708 120.277882 
L 578.443615 119.94008 
L 581.478147 119.053351 
L 582.085054 118.673324 
L 582.69196 118.546649 
L 583.298867 118.039946 
L 585.119587 117.702145 
L 586.3334 117.026542 
L 586.940306 116.350938 
L 588.154119 116.097587 
L 592.402465 115.126408 
L 593.009372 114.957507 
L 594.223185 114.915282 
L 594.830092 114.619705 
L 597.257718 114.197453 
L 597.864624 113.944102 
L 599.685344 113.690751 
L 602.11297 112.930697 
L 603.93369 112.508445 
L 605.754409 112.043968 
L 607.575129 111.49504 
L 610.609662 110.608311 
L 611.823475 110.059383 
L 613.037288 109.637131 
L 613.644195 109.172654 
L 614.858008 108.834853 
L 615.464914 108.581501 
L 616.678727 108.2437 
L 619.106354 107.145845 
L 620.927073 107.019169 
L 623.3547 106.343566 
L 623.961606 105.963539 
L 625.175419 105.625737 
L 626.996139 104.696783 
L 627.603045 104.570107 
L 628.209952 104.274531 
L 628.816859 104.232306 
L 635.492831 101.99437 
L 637.920457 101.403217 
L 638.527363 101.234316 
L 639.741176 100.685389 
L 640.348083 100.600938 
L 641.561896 100.263137 
L 642.168803 99.79866 
L 642.775709 99.503083 
L 643.382616 98.785255 
L 643.989522 98.363003 
L 645.203335 97.982976 
L 645.810242 97.518499 
L 652.486214 94.773861 
L 653.700027 94.478284 
L 655.520747 93.63378 
L 656.73456 92.915952 
L 657.341467 92.789276 
L 657.948373 92.324799 
L 659.162186 91.733646 
L 660.375999 90.973592 
L 662.196719 90.129088 
L 662.803625 89.706836 
L 664.017439 89.284584 
L 665.231252 88.566756 
L 665.838158 88.313405 
L 666.445065 87.891153 
L 667.658878 87.468901 
L 668.265784 87.342225 
L 670.693411 86.24437 
L 673.727943 85.18874 
L 674.33485 85.146515 
L 674.941757 84.977614 
L 675.548663 84.597587 
L 676.15557 84.513137 
L 676.762476 84.302011 
L 678.583196 83.964209 
L 682.224635 82.1063 
L 682.831542 81.768499 
L 683.438448 81.684048 
L 685.259168 80.712869 
L 687.079888 80.037265 
L 688.900607 79.234987 
L 691.328233 78.263807 
L 691.93514 78.094906 
L 692.542047 77.714879 
L 693.75586 77.545979 
L 694.362766 77.165952 
L 694.969673 77.123727 
L 696.183486 76.7437 
L 697.397299 76.152547 
L 698.004206 76.068097 
L 698.611112 75.814745 
L 699.218019 75.68807 
L 701.038738 74.885791 
L 701.645645 74.759115 
L 702.252551 74.505764 
L 705.287084 73.787936 
L 707.107804 73.112332 
L 709.53543 71.718901 
L 710.749243 71.254424 
L 711.35615 70.874397 
L 712.569963 70.621046 
L 713.176869 70.283244 
L 713.783776 70.156568 
L 714.997589 69.480965 
L 718.639028 67.791957 
L 720.459748 67.200804 
L 721.673561 66.778552 
L 722.280468 66.567426 
L 723.494281 65.934048 
L 724.708094 65.554021 
L 725.315 65.427346 
L 726.528814 64.878418 
L 727.13572 64.667292 
L 727.742627 64.329491 
L 728.349533 64.24504 
L 728.95644 64.033914 
L 730.170253 63.358311 
L 732.597879 62.260456 
L 733.811692 61.838204 
L 735.025505 61.204826 
L 735.632412 61.120375 
L 738.666945 59.769169 
L 739.273851 59.346917 
L 741.701477 58.544638 
L 742.308384 58.544638 
L 743.522197 57.99571 
L 745.342917 56.264477 
L 745.949823 55.968901 
L 746.55673 55.8 
L 747.163636 55.8 
L 747.163636 55.8 
" clip-path="url(#pcfba1529a3)" style="fill: none; stroke: #1f77b4; stroke-width: 1.5; stroke-linecap: square"/>
   </g>
   <g id="line2d_36">
    <path d="M 139.04327 307.8 
L 140.86399 307.71555 
L 142.68471 307.673324 
L 146.326149 307.588874 
L 149.360682 307.462198 
L 151.788308 307.462198 
L 152.395214 307.293298 
L 154.822841 307.208847 
L 156.64356 306.997721 
L 158.46428 306.82882 
L 162.105719 306.65992 
L 162.712626 306.65992 
L 163.319532 306.533244 
L 165.747159 306.448794 
L 166.960972 306.364343 
L 171.816224 306.279893 
L 174.850757 306.153217 
L 182.133635 306.068767 
L 185.168168 305.942091 
L 188.809608 305.857641 
L 191.237234 305.77319 
L 196.699393 305.68874 
L 198.520112 305.646515 
L 200.340832 305.60429 
L 202.161552 305.393164 
L 205.802991 305.350938 
L 207.016804 305.266488 
L 211.26515 305.182038 
L 217.941122 304.802011 
L 222.189468 304.71756 
L 223.403281 304.63311 
L 225.224001 304.54866 
L 228.86544 304.379759 
L 231.293066 304.337534 
L 233.113786 304.168633 
L 242.824291 303.57748 
L 245.251917 303.493029 
L 249.500263 303.281903 
L 251.320983 303.197453 
L 257.390048 302.859651 
L 264.06602 302.775201 
L 266.493646 302.52185 
L 267.707459 302.437399 
L 275.597245 301.804021 
L 279.238684 301.339544 
L 281.66631 301.255094 
L 286.521563 300.621716 
L 290.163002 300.537265 
L 291.983722 300.368365 
L 293.197535 300.326139 
L 294.411348 300.199464 
L 296.232067 300.115013 
L 297.445881 299.946113 
L 300.480413 299.608311 
L 302.90804 299.523861 
L 304.121853 299.43941 
L 306.549479 299.35496 
L 307.763292 299.270509 
L 310.797825 298.974933 
L 311.404731 298.806032 
L 315.046171 298.637131 
L 318.080703 298.552681 
L 325.970489 298.088204 
L 327.791208 298.003753 
L 335.680993 297.539276 
L 339.929339 297.454826 
L 340.536246 297.32815 
L 345.391498 297.2437 
L 349.639844 297.032574 
L 356.315816 296.948123 
L 360.564162 296.736997 
L 365.419414 296.652547 
L 370.274667 296.399196 
L 374.523013 296.314745 
L 386.054237 295.596917 
L 390.90949 295.512466 
L 406.68906 294.499062 
L 410.330499 294.414611 
L 412.151219 294.372386 
L 413.971939 294.330161 
L 415.792658 294.16126 
L 420.647911 294.07681 
L 421.861724 293.865684 
L 423.075537 293.781233 
L 426.11007 293.654558 
L 427.323883 293.570107 
L 428.537696 293.485657 
L 433.999855 293.401206 
L 435.213668 293.274531 
L 437.641294 293.232306 
L 438.248201 293.10563 
L 439.462014 293.02118 
L 440.068921 292.894504 
L 441.88964 292.810054 
L 452.207052 292.176676 
L 454.027771 292.092225 
L 457.062304 291.96555 
L 465.558996 291.881099 
L 469.807342 291.669973 
L 474.662594 291.585523 
L 477.09022 291.501072 
L 479.517846 291.458847 
L 480.73166 291.332172 
L 483.159286 291.247721 
L 489.228351 290.90992 
L 492.869791 290.867694 
L 494.69051 290.698794 
L 496.51123 290.656568 
L 500.759576 290.572118 
L 503.187202 290.487668 
L 510.470081 290.403217 
L 513.504613 290.276542 
L 517.146053 290.192091 
L 518.966772 289.980965 
L 522.608212 289.93874 
L 524.428931 289.769839 
L 526.856558 289.685389 
L 534.139436 289.600938 
L 537.173969 289.474263 
L 547.49138 289.432038 
L 548.705194 289.347587 
L 550.525913 289.305362 
L 558.415698 289.220912 
L 559.629511 289.136461 
L 566.305484 289.052011 
L 568.73311 288.96756 
L 576.015988 288.925335 
L 577.229802 288.840885 
L 586.3334 288.79866 
L 588.154119 288.629759 
L 603.326783 288.545308 
L 605.147503 288.503083 
L 621.53398 288.418633 
L 623.961606 288.334182 
L 634.279017 288.249732 
L 635.492831 288.165282 
L 638.527363 288.080831 
L 640.348083 287.91193 
L 643.382616 287.82748 
L 645.810242 287.743029 
L 649.451681 287.658579 
L 651.272401 287.616354 
L 653.700027 287.531903 
L 655.520747 287.489678 
L 658.55528 287.405228 
L 659.769093 287.320777 
L 663.410532 287.236327 
L 666.445065 287.109651 
L 667.658878 287.067426 
L 668.872691 286.982976 
L 670.693411 286.940751 
L 673.121037 286.8563 
L 675.548663 286.77185 
L 683.438448 286.687399 
L 685.866075 286.602949 
L 690.721327 286.518499 
L 694.969673 286.307373 
L 700.431832 286.222922 
L 701.645645 286.138472 
L 712.569963 286.054021 
L 714.390682 286.011796 
L 717.425215 285.969571 
L 719.852841 285.71622 
L 721.673561 285.673995 
L 725.315 285.589544 
L 731.990973 285.209517 
L 734.418599 285.125067 
L 736.846225 285.040617 
L 740.487664 284.956166 
L 741.701477 284.871716 
L 744.129104 284.787265 
L 746.55673 284.533914 
L 747.163636 284.533914 
L 747.163636 284.533914 
" clip-path="url(#pcfba1529a3)" style="fill: none; stroke: #ff7f0e; stroke-width: 1.5; stroke-linecap: square"/>
   </g>
   <g id="patch_3">
    <path d="M 108 320.4 
L 108 43.2 
" style="fill: none; stroke: #a9a9a9; stroke-width: 0.8; stroke-linejoin: miter; stroke-linecap: square"/>
   </g>
   <g id="patch_4">
    <path d="M 777.6 320.4 
L 777.6 43.2 
" style="fill: none"/>
   </g>
   <g id="patch_5">
    <path d="M 108 320.4 
L 777.6 320.4 
" style="fill: none; stroke: #a9a9a9; stroke-width: 0.8; stroke-linejoin: miter; stroke-linecap: square"/>
   </g>
   <g id="patch_6">
    <path d="M 108 43.2 
L 777.6 43.2 
" style="fill: none"/>
   </g>
   <g id="text_18">
    <!-- get_subscribe history -->
    <g style="fill: #a9a9a9" transform="translate(378.6075 37.2) scale(0.12 -0.12)">
     <defs>
      <path id="DejaVuSans-67" d="M 2906 1791 
Q 2906 2416 2648 2759 
Q 2391 3103 1925 3103 
Q 1463 3103 1205 2759 
Q 947 2416 947 1791 
Q 947 1169 1205 825 
Q 1463 481 1925 481 
Q 2391 481 2648 825 
Q 2906 1169 2906 1791 
z
M 3481 434 
Q 3481 -459 3084 -895 
Q 2688 -1331 1869 -1331 
Q 1566 -1331 1297 -1286 
Q 1028 -1241 775 -1147 
L 775 -588 
Q 1028 -725 1275 -790 
Q 1522 -856 1778 -856 
Q 2344 -856 2625 -561 
Q 2906 -266 2906 331 
L 2906 616 
Q 2728 306 2450 153 
Q 2172 0 1784 0 
Q 1141 0 747 490 
Q 353 981 353 1791 
Q 353 2603 747 3093 
Q 1141 3584 1784 3584 
Q 2172 3584 2450 3431 
Q 2728 3278 2906 2969 
L 2906 3500 
L 3481 3500 
L 3481 434 
z
" transform="scale(0.015625)"/>
      <path id="DejaVuSans-65" d="M 3597 1894 
L 3597 1613 
L 953 1613 
Q 991 1019 1311 708 
Q 1631 397 2203 397 
Q 2534 397 2845 478 
Q 3156 559 3463 722 
L 3463 178 
Q 3153 47 2828 -22 
Q 2503 -91 2169 -91 
Q 1331 -91 842 396 
Q 353 884 353 1716 
Q 353 2575 817 3079 
Q 1281 3584 2069 3584 
Q 2775 3584 3186 3129 
Q 3597 2675 3597 1894 
z
M 3022 2063 
Q 3016 2534 2758 2815 
Q 2500 3097 2075 3097 
Q 1594 3097 1305 2825 
Q 1016 2553 972 2059 
L 3022 2063 
z
" transform="scale(0.015625)"/>
      <path id="DejaVuSans-74" d="M 1172 4494 
L 1172 3500 
L 2356 3500 
L 2356 3053 
L 1172 3053 
L 1172 1153 
Q 1172 725 1289 603 
Q 1406 481 1766 481 
L 2356 481 
L 2356 0 
L 1766 0 
Q 1100 0 847 248 
Q 594 497 594 1153 
L 594 3053 
L 172 3053 
L 172 3500 
L 594 3500 
L 594 4494 
L 1172 4494 
z
" transform="scale(0.015625)"/>
      <path id="DejaVuSans-5f" d="M 3263 -1063 
L 3263 -1509 
L -63 -1509 
L -63 -1063 
L 3263 -1063 
z
" transform="scale(0.015625)"/>
      <path id="DejaVuSans-73" d="M 2834 3397 
L 2834 2853 
Q 2591 2978 2328 3040 
Q 2066 3103 1784 3103 
Q 1356 3103 1142 2972 
Q 928 2841 928 2578 
Q 928 2378 1081 2264 
Q 1234 2150 1697 2047 
L 1894 2003 
Q 2506 1872 2764 1633 
Q 3022 1394 3022 966 
Q 3022 478 2636 193 
Q 2250 -91 1575 -91 
Q 1294 -91 989 -36 
Q 684 19 347 128 
L 347 722 
Q 666 556 975 473 
Q 1284 391 1588 391 
Q 1994 391 2212 530 
Q 2431 669 2431 922 
Q 2431 1156 2273 1281 
Q 2116 1406 1581 1522 
L 1381 1569 
Q 847 1681 609 1914 
Q 372 2147 372 2553 
Q 372 3047 722 3315 
Q 1072 3584 1716 3584 
Q 2034 3584 2315 3537 
Q 2597 3491 2834 3397 
z
" transform="scale(0.015625)"/>
      <path id="DejaVuSans-75" d="M 544 1381 
L 544 3500 
L 1119 3500 
L 1119 1403 
Q 1119 906 1312 657 
Q 1506 409 1894 409 
Q 2359 409 2629 706 
Q 2900 1003 2900 1516 
L 2900 3500 
L 3475 3500 
L 3475 0 
L 2900 0 
L 2900 538 
Q 2691 219 2414 64 
Q 2138 -91 1772 -91 
Q 1169 -91 856 284 
Q 544 659 544 1381 
z
M 1991 3584 
L 1991 3584 
z
" transform="scale(0.015625)"/>
      <path id="DejaVuSans-62" d="M 3116 1747 
Q 3116 2381 2855 2742 
Q 2594 3103 2138 3103 
Q 1681 3103 1420 2742 
Q 1159 2381 1159 1747 
Q 1159 1113 1420 752 
Q 1681 391 2138 391 
Q 2594 391 2855 752 
Q 3116 1113 3116 1747 
z
M 1159 2969 
Q 1341 3281 1617 3432 
Q 1894 3584 2278 3584 
Q 2916 3584 3314 3078 
Q 3713 2572 3713 1747 
Q 3713 922 3314 415 
Q 2916 -91 2278 -91 
Q 1894 -91 1617 61 
Q 1341 213 1159 525 
L 1159 0 
L 581 0 
L 581 4863 
L 1159 4863 
L 1159 2969 
z
" transform="scale(0.015625)"/>
      <path id="DejaVuSans-63" d="M 3122 3366 
L 3122 2828 
Q 2878 2963 2633 3030 
Q 2388 3097 2138 3097 
Q 1578 3097 1268 2742 
Q 959 2388 959 1747 
Q 959 1106 1268 751 
Q 1578 397 2138 397 
Q 2388 397 2633 464 
Q 2878 531 3122 666 
L 3122 134 
Q 2881 22 2623 -34 
Q 2366 -91 2075 -91 
Q 1284 -91 818 406 
Q 353 903 353 1747 
Q 353 2603 823 3093 
Q 1294 3584 2113 3584 
Q 2378 3584 2631 3529 
Q 2884 3475 3122 3366 
z
" transform="scale(0.015625)"/>
      <path id="DejaVuSans-72" d="M 2631 2963 
Q 2534 3019 2420 3045 
Q 2306 3072 2169 3072 
Q 1681 3072 1420 2755 
Q 1159 2438 1159 1844 
L 1159 0 
L 581 0 
L 581 3500 
L 1159 3500 
L 1159 2956 
Q 1341 3275 1631 3429 
Q 1922 3584 2338 3584 
Q 2397 3584 2469 3576 
Q 2541 3569 2628 3553 
L 2631 2963 
z
" transform="scale(0.015625)"/>
      <path id="DejaVuSans-69" d="M 603 3500 
L 1178 3500 
L 1178 0 
L 603 0 
L 603 3500 
z
M 603 4863 
L 1178 4863 
L 1178 4134 
L 603 4134 
L 603 4863 
z
" transform="scale(0.015625)"/>
      <path id="DejaVuSans-20" transform="scale(0.015625)"/>
      <path id="DejaVuSans-68" d="M 3513 2113 
L 3513 0 
L 2938 0 
L 2938 2094 
Q 2938 2591 2744 2837 
Q 2550 3084 2163 3084 
Q 1697 3084 1428 2787 
Q 1159 2491 1159 1978 
L 1159 0 
L 581 0 
L 581 4863 
L 1159 4863 
L 1159 2956 
Q 1366 3272 1645 3428 
Q 1925 3584 2291 3584 
Q 2894 3584 3203 3211 
Q 3513 2838 3513 2113 
z
" transform="scale(0.015625)"/>
      <path id="DejaVuSans-6f" d="M 1959 3097 
Q 1497 3097 1228 2736 
Q 959 2375 959 1747 
Q 959 1119 1226 758 
Q 1494 397 1959 397 
Q 2419 397 2687 759 
Q 2956 1122 2956 1747 
Q 2956 2369 2687 2733 
Q 2419 3097 1959 3097 
z
M 1959 3584 
Q 2709 3584 3137 3096 
Q 3566 2609 3566 1747 
Q 3566 888 3137 398 
Q 2709 -91 1959 -91 
Q 1206 -91 779 398 
Q 353 888 353 1747 
Q 353 2609 779 3096 
Q 1206 3584 1959 3584 
z
" transform="scale(0.015625)"/>
      <path id="DejaVuSans-79" d="M 2059 -325 
Q 1816 -950 1584 -1140 
Q 1353 -1331 966 -1331 
L 506 -1331 
L 506 -850 
L 844 -850 
Q 1081 -850 1212 -737 
Q 1344 -625 1503 -206 
L 1606 56 
L 191 3500 
L 800 3500 
L 1894 763 
L 2988 3500 
L 3597 3500 
L 2059 -325 
z
" transform="scale(0.015625)"/>
     </defs>
     <use xlink:href="#DejaVuSans-67"/>
     <use xlink:href="#DejaVuSans-65" x="63.476562"/>
     <use xlink:href="#DejaVuSans-74" x="125"/>
     <use xlink:href="#DejaVuSans-5f" x="164.208984"/>
     <use xlink:href="#DejaVuSans-73" x="214.208984"/>
     <use xlink:href="#DejaVuSans-75" x="266.308594"/>
     <use xlink:href="#DejaVuSans-62" x="329.6875"/>
     <use xlink:href="#DejaVuSans-73" x="393.164062"/>
     <use xlink:href="#DejaVuSans-63" x="445.263672"/>
     <use xlink:href="#DejaVuSans-72" x="500.244141"/>
     <use xlink:href="#DejaVuSans-69" x="541.357422"/>
     <use xlink:href="#DejaVuSans-62" x="569.140625"/>
     <use xlink:href="#DejaVuSans-65" x="632.617188"/>
     <use xlink:href="#DejaVuSans-20" x="694.140625"/>
     <use xlink:href="#DejaVuSans-68" x="725.927734"/>
     <use xlink:href="#DejaVuSans-69" x="789.306641"/>
     <use xlink:href="#DejaVuSans-73" x="817.089844"/>
     <use xlink:href="#DejaVuSans-74" x="869.189453"/>
     <use xlink:href="#DejaVuSans-6f" x="908.398438"/>
     <use xlink:href="#DejaVuSans-72" x="969.580078"/>
     <use xlink:href="#DejaVuSans-79" x="1010.693359"/>
    </g>
   </g>
   <g id="legend_1">
    <g id="line2d_37">
     <path d="M 815.08 328.498438 
L 825.08 328.498438 
L 835.08 328.498438 
" style="fill: none; stroke: #1f77b4; stroke-width: 1.5; stroke-linecap: square"/>
    </g>
    <g id="text_19">
     <!-- star -->
     <g style="fill: #a9a9a9" transform="translate(843.08 331.998438) scale(0.1 -0.1)">
      <defs>
       <path id="DejaVuSans-61" d="M 2194 1759 
Q 1497 1759 1228 1600 
Q 959 1441 959 1056 
Q 959 750 1161 570 
Q 1363 391 1709 391 
Q 2188 391 2477 730 
Q 2766 1069 2766 1631 
L 2766 1759 
L 2194 1759 
z
M 3341 1997 
L 3341 0 
L 2766 0 
L 2766 531 
Q 2569 213 2275 61 
Q 1981 -91 1556 -91 
Q 1019 -91 701 211 
Q 384 513 384 1019 
Q 384 1609 779 1909 
Q 1175 2209 1959 2209 
L 2766 2209 
L 2766 2266 
Q 2766 2663 2505 2880 
Q 2244 3097 1772 3097 
Q 1472 3097 1187 3025 
Q 903 2953 641 2809 
L 641 3341 
Q 956 3463 1253 3523 
Q 1550 3584 1831 3584 
Q 2591 3584 2966 3190 
Q 3341 2797 3341 1997 
z
" transform="scale(0.015625)"/>
      </defs>
      <use xlink:href="#DejaVuSans-73"/>
      <use xlink:href="#DejaVuSans-74" x="52.099609"/>
      <use xlink:href="#DejaVuSans-61" x="91.308594"/>
      <use xlink:href="#DejaVuSans-72" x="152.587891"/>
     </g>
    </g>
    <g id="line2d_38">
     <path d="M 815.08 343.176562 
L 825.08 343.176562 
L 835.08 343.176562 
" style="fill: none; stroke: #ff7f0e; stroke-width: 1.5; stroke-linecap: square"/>
    </g>
    <g id="text_20">
     <!-- fork -->
     <g style="fill: #a9a9a9" transform="translate(843.08 346.676562) scale(0.1 -0.1)">
      <defs>
       <path id="DejaVuSans-66" d="M 2375 4863 
L 2375 4384 
L 1825 4384 
Q 1516 4384 1395 4259 
Q 1275 4134 1275 3809 
L 1275 3500 
L 2222 3500 
L 2222 3053 
L 1275 3053 
L 1275 0 
L 697 0 
L 697 3053 
L 147 3053 
L 147 3500 
L 697 3500 
L 697 3744 
Q 697 4328 969 4595 
Q 1241 4863 1831 4863 
L 2375 4863 
z
" transform="scale(0.015625)"/>
       <path id="DejaVuSans-6b" d="M 581 4863 
L 1159 4863 
L 1159 1991 
L 2875 3500 
L 3609 3500 
L 1753 1863 
L 3688 0 
L 2938 0 
L 1159 1709 
L 1159 0 
L 581 0 
L 581 4863 
z
" transform="scale(0.015625)"/>
      </defs>
      <use xlink:href="#DejaVuSans-66"/>
      <use xlink:href="#DejaVuSans-6f" x="35.205078"/>
      <use xlink:href="#DejaVuSans-72" x="96.386719"/>
      <use xlink:href="#DejaVuSans-6b" x="137.5"/>
     </g>
    </g>
   </g>
  </g>
 </g>
 <defs>
  <clipPath id="pcfba1529a3">
   <rect x="108" y="43.2" width="669.6" height="277.2"/>
  </clipPath>
 </defs>
</svg>
