<?xml version="1.0" encoding="utf-8" standalone="no"?>
<!DOCTYPE svg PUBLIC "-//W3C//DTD SVG 1.1//EN"
  "http://www.w3.org/Graphics/SVG/1.1/DTD/svg11.dtd">
<svg xmlns:xlink="http://www.w3.org/1999/xlink" width="864pt" height="360pt" viewBox="0 0 864 360" xmlns="http://www.w3.org/2000/svg" version="1.1">
 <metadata>
  <rdf:RDF xmlns:dc="http://purl.org/dc/elements/1.1/" xmlns:cc="http://creativecommons.org/ns#" xmlns:rdf="http://www.w3.org/1999/02/22-rdf-syntax-ns#">
   <cc:Work>
    <dc:type rdf:resource="http://purl.org/dc/dcmitype/StillImage"/>
    <dc:date>2024-04-22T20:05:34.189917</dc:date>
    <dc:format>image/svg+xml</dc:format>
    <dc:creator>
     <cc:Agent>
      <dc:title>Matplotlib v3.8.4, https://matplotlib.org/</dc:title>
     </cc:Agent>
    </dc:creator>
   </cc:Work>
  </rdf:RDF>
 </metadata>
 <defs>
  <style type="text/css">*{stroke-linejoin: round; stroke-linecap: butt}</style>
 </defs>
 <g id="figure_1">
  <g id="patch_1">
   <path d="M 0 360 
L 864 360 
L 864 0 
L 0 0 
L 0 360 
z
" style="fill: none; opacity: 0"/>
  </g>
  <g id="axes_1">
   <g id="patch_2">
    <path d="M 108 320.4 
L 777.6 320.4 
L 777.6 43.2 
L 108 43.2 
L 108 320.4 
z
" style="fill: none; opacity: 0"/>
   </g>
   <g id="matplotlib.axis_1">
    <g id="xtick_1">
     <g id="line2d_1">
      <path d="M 162.105719 320.4 
L 162.105719 43.2 
" clip-path="url(#p8f27a80004)" style="fill: none; stroke-dasharray: 5.12,1.28,0.8,1.28; stroke-dashoffset: 0; stroke: #b0b0b0; stroke-width: 0.8"/>
     </g>
     <g id="line2d_2">
      <defs>
       <path id="m597d796b10" d="M 0 0 
L 0 3.5 
" style="stroke: #a9a9a9; stroke-width: 0.8"/>
      </defs>
      <g>
       <use xlink:href="#m597d796b10" x="162.105719" y="320.4" style="fill: #a9a9a9; stroke: #a9a9a9; stroke-width: 0.8"/>
      </g>
     </g>
     <g id="text_1">
      <!-- 2021-09 -->
      <g style="fill: #a9a9a9" transform="translate(141.214313 334.998438) scale(0.1 -0.1)">
       <defs>
        <path id="DejaVuSans-32" d="M 1228 531 
L 3431 531 
L 3431 0 
L 469 0 
L 469 531 
Q 828 903 1448 1529 
Q 2069 2156 2228 2338 
Q 2531 2678 2651 2914 
Q 2772 3150 2772 3378 
Q 2772 3750 2511 3984 
Q 2250 4219 1831 4219 
Q 1534 4219 1204 4116 
Q 875 4013 500 3803 
L 500 4441 
Q 881 4594 1212 4672 
Q 1544 4750 1819 4750 
Q 2544 4750 2975 4387 
Q 3406 4025 3406 3419 
Q 3406 3131 3298 2873 
Q 3191 2616 2906 2266 
Q 2828 2175 2409 1742 
Q 1991 1309 1228 531 
z
" transform="scale(0.015625)"/>
        <path id="DejaVuSans-30" d="M 2034 4250 
Q 1547 4250 1301 3770 
Q 1056 3291 1056 2328 
Q 1056 1369 1301 889 
Q 1547 409 2034 409 
Q 2525 409 2770 889 
Q 3016 1369 3016 2328 
Q 3016 3291 2770 3770 
Q 2525 4250 2034 4250 
z
M 2034 4750 
Q 2819 4750 3233 4129 
Q 3647 3509 3647 2328 
Q 3647 1150 3233 529 
Q 2819 -91 2034 -91 
Q 1250 -91 836 529 
Q 422 1150 422 2328 
Q 422 3509 836 4129 
Q 1250 4750 2034 4750 
z
" transform="scale(0.015625)"/>
        <path id="DejaVuSans-31" d="M 794 531 
L 1825 531 
L 1825 4091 
L 703 3866 
L 703 4441 
L 1819 4666 
L 2450 4666 
L 2450 531 
L 3481 531 
L 3481 0 
L 794 0 
L 794 531 
z
" transform="scale(0.015625)"/>
        <path id="DejaVuSans-2d" d="M 313 2009 
L 1997 2009 
L 1997 1497 
L 313 1497 
L 313 2009 
z
" transform="scale(0.015625)"/>
        <path id="DejaVuSans-39" d="M 703 97 
L 703 672 
Q 941 559 1184 500 
Q 1428 441 1663 441 
Q 2288 441 2617 861 
Q 2947 1281 2994 2138 
Q 2813 1869 2534 1725 
Q 2256 1581 1919 1581 
Q 1219 1581 811 2004 
Q 403 2428 403 3163 
Q 403 3881 828 4315 
Q 1253 4750 1959 4750 
Q 2769 4750 3195 4129 
Q 3622 3509 3622 2328 
Q 3622 1225 3098 567 
Q 2575 -91 1691 -91 
Q 1453 -91 1209 -44 
Q 966 3 703 97 
z
M 1959 2075 
Q 2384 2075 2632 2365 
Q 2881 2656 2881 3163 
Q 2881 3666 2632 3958 
Q 2384 4250 1959 4250 
Q 1534 4250 1286 3958 
Q 1038 3666 1038 3163 
Q 1038 2656 1286 2365 
Q 1534 2075 1959 2075 
z
" transform="scale(0.015625)"/>
       </defs>
       <use xlink:href="#DejaVuSans-32"/>
       <use xlink:href="#DejaVuSans-30" x="63.623047"/>
       <use xlink:href="#DejaVuSans-32" x="127.246094"/>
       <use xlink:href="#DejaVuSans-31" x="190.869141"/>
       <use xlink:href="#DejaVuSans-2d" x="254.492188"/>
       <use xlink:href="#DejaVuSans-30" x="290.576172"/>
       <use xlink:href="#DejaVuSans-39" x="354.199219"/>
      </g>
     </g>
    </g>
    <g id="xtick_2">
     <g id="line2d_3">
      <path d="M 236.148319 320.4 
L 236.148319 43.2 
" clip-path="url(#p8f27a80004)" style="fill: none; stroke-dasharray: 5.12,1.28,0.8,1.28; stroke-dashoffset: 0; stroke: #b0b0b0; stroke-width: 0.8"/>
     </g>
     <g id="line2d_4">
      <g>
       <use xlink:href="#m597d796b10" x="236.148319" y="320.4" style="fill: #a9a9a9; stroke: #a9a9a9; stroke-width: 0.8"/>
      </g>
     </g>
     <g id="text_2">
      <!-- 2022-01 -->
      <g style="fill: #a9a9a9" transform="translate(215.256912 334.998438) scale(0.1 -0.1)">
       <use xlink:href="#DejaVuSans-32"/>
       <use xlink:href="#DejaVuSans-30" x="63.623047"/>
       <use xlink:href="#DejaVuSans-32" x="127.246094"/>
       <use xlink:href="#DejaVuSans-32" x="190.869141"/>
       <use xlink:href="#DejaVuSans-2d" x="254.492188"/>
       <use xlink:href="#DejaVuSans-30" x="290.576172"/>
       <use xlink:href="#DejaVuSans-31" x="354.199219"/>
      </g>
     </g>
    </g>
    <g id="xtick_3">
     <g id="line2d_5">
      <path d="M 308.977105 320.4 
L 308.977105 43.2 
" clip-path="url(#p8f27a80004)" style="fill: none; stroke-dasharray: 5.12,1.28,0.8,1.28; stroke-dashoffset: 0; stroke: #b0b0b0; stroke-width: 0.8"/>
     </g>
     <g id="line2d_6">
      <g>
       <use xlink:href="#m597d796b10" x="308.977105" y="320.4" style="fill: #a9a9a9; stroke: #a9a9a9; stroke-width: 0.8"/>
      </g>
     </g>
     <g id="text_3">
      <!-- 2022-05 -->
      <g style="fill: #a9a9a9" transform="translate(288.085699 334.998438) scale(0.1 -0.1)">
       <defs>
        <path id="DejaVuSans-35" d="M 691 4666 
L 3169 4666 
L 3169 4134 
L 1269 4134 
L 1269 2991 
Q 1406 3038 1543 3061 
Q 1681 3084 1819 3084 
Q 2600 3084 3056 2656 
Q 3513 2228 3513 1497 
Q 3513 744 3044 326 
Q 2575 -91 1722 -91 
Q 1428 -91 1123 -41 
Q 819 9 494 109 
L 494 744 
Q 775 591 1075 516 
Q 1375 441 1709 441 
Q 2250 441 2565 725 
Q 2881 1009 2881 1497 
Q 2881 1984 2565 2268 
Q 2250 2553 1709 2553 
Q 1456 2553 1204 2497 
Q 953 2441 691 2322 
L 691 4666 
z
" transform="scale(0.015625)"/>
       </defs>
       <use xlink:href="#DejaVuSans-32"/>
       <use xlink:href="#DejaVuSans-30" x="63.623047"/>
       <use xlink:href="#DejaVuSans-32" x="127.246094"/>
       <use xlink:href="#DejaVuSans-32" x="190.869141"/>
       <use xlink:href="#DejaVuSans-2d" x="254.492188"/>
       <use xlink:href="#DejaVuSans-30" x="290.576172"/>
       <use xlink:href="#DejaVuSans-35" x="354.199219"/>
      </g>
     </g>
    </g>
    <g id="xtick_4">
     <g id="line2d_7">
      <path d="M 383.626611 320.4 
L 383.626611 43.2 
" clip-path="url(#p8f27a80004)" style="fill: none; stroke-dasharray: 5.12,1.28,0.8,1.28; stroke-dashoffset: 0; stroke: #b0b0b0; stroke-width: 0.8"/>
     </g>
     <g id="line2d_8">
      <g>
       <use xlink:href="#m597d796b10" x="383.626611" y="320.4" style="fill: #a9a9a9; stroke: #a9a9a9; stroke-width: 0.8"/>
      </g>
     </g>
     <g id="text_4">
      <!-- 2022-09 -->
      <g style="fill: #a9a9a9" transform="translate(362.735205 334.998438) scale(0.1 -0.1)">
       <use xlink:href="#DejaVuSans-32"/>
       <use xlink:href="#DejaVuSans-30" x="63.623047"/>
       <use xlink:href="#DejaVuSans-32" x="127.246094"/>
       <use xlink:href="#DejaVuSans-32" x="190.869141"/>
       <use xlink:href="#DejaVuSans-2d" x="254.492188"/>
       <use xlink:href="#DejaVuSans-30" x="290.576172"/>
       <use xlink:href="#DejaVuSans-39" x="354.199219"/>
      </g>
     </g>
    </g>
    <g id="xtick_5">
     <g id="line2d_9">
      <path d="M 457.669211 320.4 
L 457.669211 43.2 
" clip-path="url(#p8f27a80004)" style="fill: none; stroke-dasharray: 5.12,1.28,0.8,1.28; stroke-dashoffset: 0; stroke: #b0b0b0; stroke-width: 0.8"/>
     </g>
     <g id="line2d_10">
      <g>
       <use xlink:href="#m597d796b10" x="457.669211" y="320.4" style="fill: #a9a9a9; stroke: #a9a9a9; stroke-width: 0.8"/>
      </g>
     </g>
     <g id="text_5">
      <!-- 2023-01 -->
      <g style="fill: #a9a9a9" transform="translate(436.777804 334.998438) scale(0.1 -0.1)">
       <defs>
        <path id="DejaVuSans-33" d="M 2597 2516 
Q 3050 2419 3304 2112 
Q 3559 1806 3559 1356 
Q 3559 666 3084 287 
Q 2609 -91 1734 -91 
Q 1441 -91 1130 -33 
Q 819 25 488 141 
L 488 750 
Q 750 597 1062 519 
Q 1375 441 1716 441 
Q 2309 441 2620 675 
Q 2931 909 2931 1356 
Q 2931 1769 2642 2001 
Q 2353 2234 1838 2234 
L 1294 2234 
L 1294 2753 
L 1863 2753 
Q 2328 2753 2575 2939 
Q 2822 3125 2822 3475 
Q 2822 3834 2567 4026 
Q 2313 4219 1838 4219 
Q 1578 4219 1281 4162 
Q 984 4106 628 3988 
L 628 4550 
Q 988 4650 1302 4700 
Q 1616 4750 1894 4750 
Q 2613 4750 3031 4423 
Q 3450 4097 3450 3541 
Q 3450 3153 3228 2886 
Q 3006 2619 2597 2516 
z
" transform="scale(0.015625)"/>
       </defs>
       <use xlink:href="#DejaVuSans-32"/>
       <use xlink:href="#DejaVuSans-30" x="63.623047"/>
       <use xlink:href="#DejaVuSans-32" x="127.246094"/>
       <use xlink:href="#DejaVuSans-33" x="190.869141"/>
       <use xlink:href="#DejaVuSans-2d" x="254.492188"/>
       <use xlink:href="#DejaVuSans-30" x="290.576172"/>
       <use xlink:href="#DejaVuSans-31" x="354.199219"/>
      </g>
     </g>
    </g>
    <g id="xtick_6">
     <g id="line2d_11">
      <path d="M 530.497997 320.4 
L 530.497997 43.2 
" clip-path="url(#p8f27a80004)" style="fill: none; stroke-dasharray: 5.12,1.28,0.8,1.28; stroke-dashoffset: 0; stroke: #b0b0b0; stroke-width: 0.8"/>
     </g>
     <g id="line2d_12">
      <g>
       <use xlink:href="#m597d796b10" x="530.497997" y="320.4" style="fill: #a9a9a9; stroke: #a9a9a9; stroke-width: 0.8"/>
      </g>
     </g>
     <g id="text_6">
      <!-- 2023-05 -->
      <g style="fill: #a9a9a9" transform="translate(509.606591 334.998438) scale(0.1 -0.1)">
       <use xlink:href="#DejaVuSans-32"/>
       <use xlink:href="#DejaVuSans-30" x="63.623047"/>
       <use xlink:href="#DejaVuSans-32" x="127.246094"/>
       <use xlink:href="#DejaVuSans-33" x="190.869141"/>
       <use xlink:href="#DejaVuSans-2d" x="254.492188"/>
       <use xlink:href="#DejaVuSans-30" x="290.576172"/>
       <use xlink:href="#DejaVuSans-35" x="354.199219"/>
      </g>
     </g>
    </g>
    <g id="xtick_7">
     <g id="line2d_13">
      <path d="M 605.147503 320.4 
L 605.147503 43.2 
" clip-path="url(#p8f27a80004)" style="fill: none; stroke-dasharray: 5.12,1.28,0.8,1.28; stroke-dashoffset: 0; stroke: #b0b0b0; stroke-width: 0.8"/>
     </g>
     <g id="line2d_14">
      <g>
       <use xlink:href="#m597d796b10" x="605.147503" y="320.4" style="fill: #a9a9a9; stroke: #a9a9a9; stroke-width: 0.8"/>
      </g>
     </g>
     <g id="text_7">
      <!-- 2023-09 -->
      <g style="fill: #a9a9a9" transform="translate(584.256097 334.998438) scale(0.1 -0.1)">
       <use xlink:href="#DejaVuSans-32"/>
       <use xlink:href="#DejaVuSans-30" x="63.623047"/>
       <use xlink:href="#DejaVuSans-32" x="127.246094"/>
       <use xlink:href="#DejaVuSans-33" x="190.869141"/>
       <use xlink:href="#DejaVuSans-2d" x="254.492188"/>
       <use xlink:href="#DejaVuSans-30" x="290.576172"/>
       <use xlink:href="#DejaVuSans-39" x="354.199219"/>
      </g>
     </g>
    </g>
    <g id="xtick_8">
     <g id="line2d_15">
      <path d="M 679.190102 320.4 
L 679.190102 43.2 
" clip-path="url(#p8f27a80004)" style="fill: none; stroke-dasharray: 5.12,1.28,0.8,1.28; stroke-dashoffset: 0; stroke: #b0b0b0; stroke-width: 0.8"/>
     </g>
     <g id="line2d_16">
      <g>
       <use xlink:href="#m597d796b10" x="679.190102" y="320.4" style="fill: #a9a9a9; stroke: #a9a9a9; stroke-width: 0.8"/>
      </g>
     </g>
     <g id="text_8">
      <!-- 2024-01 -->
      <g style="fill: #a9a9a9" transform="translate(658.298696 334.998438) scale(0.1 -0.1)">
       <defs>
        <path id="DejaVuSans-34" d="M 2419 4116 
L 825 1625 
L 2419 1625 
L 2419 4116 
z
M 2253 4666 
L 3047 4666 
L 3047 1625 
L 3713 1625 
L 3713 1100 
L 3047 1100 
L 3047 0 
L 2419 0 
L 2419 1100 
L 313 1100 
L 313 1709 
L 2253 4666 
z
" transform="scale(0.015625)"/>
       </defs>
       <use xlink:href="#DejaVuSans-32"/>
       <use xlink:href="#DejaVuSans-30" x="63.623047"/>
       <use xlink:href="#DejaVuSans-32" x="127.246094"/>
       <use xlink:href="#DejaVuSans-34" x="190.869141"/>
       <use xlink:href="#DejaVuSans-2d" x="254.492188"/>
       <use xlink:href="#DejaVuSans-30" x="290.576172"/>
       <use xlink:href="#DejaVuSans-31" x="354.199219"/>
      </g>
     </g>
    </g>
    <g id="xtick_9">
     <g id="line2d_17">
      <path d="M 752.625795 320.4 
L 752.625795 43.2 
" clip-path="url(#p8f27a80004)" style="fill: none; stroke-dasharray: 5.12,1.28,0.8,1.28; stroke-dashoffset: 0; stroke: #b0b0b0; stroke-width: 0.8"/>
     </g>
     <g id="line2d_18">
      <g>
       <use xlink:href="#m597d796b10" x="752.625795" y="320.4" style="fill: #a9a9a9; stroke: #a9a9a9; stroke-width: 0.8"/>
      </g>
     </g>
     <g id="text_9">
      <!-- 2024-05 -->
      <g style="fill: #a9a9a9" transform="translate(731.734389 334.998438) scale(0.1 -0.1)">
       <use xlink:href="#DejaVuSans-32"/>
       <use xlink:href="#DejaVuSans-30" x="63.623047"/>
       <use xlink:href="#DejaVuSans-32" x="127.246094"/>
       <use xlink:href="#DejaVuSans-34" x="190.869141"/>
       <use xlink:href="#DejaVuSans-2d" x="254.492188"/>
       <use xlink:href="#DejaVuSans-30" x="290.576172"/>
       <use xlink:href="#DejaVuSans-35" x="354.199219"/>
      </g>
     </g>
    </g>
   </g>
   <g id="matplotlib.axis_2">
    <g id="ytick_1">
     <g id="line2d_19">
      <path d="M 108 307.842218 
L 777.6 307.842218 
" clip-path="url(#p8f27a80004)" style="fill: none; stroke-dasharray: 5.12,1.28,0.8,1.28; stroke-dashoffset: 0; stroke: #b0b0b0; stroke-width: 0.8"/>
     </g>
     <g id="line2d_20">
      <defs>
       <path id="m878f5851da" d="M 0 0 
L -3.5 0 
" style="stroke: #a9a9a9; stroke-width: 0.8"/>
      </defs>
      <g>
       <use xlink:href="#m878f5851da" x="108" y="307.842218" style="fill: #a9a9a9; stroke: #a9a9a9; stroke-width: 0.8"/>
      </g>
     </g>
     <g id="text_10">
      <!-- 0 -->
      <g style="fill: #a9a9a9" transform="translate(94.6375 311.641437) scale(0.1 -0.1)">
       <use xlink:href="#DejaVuSans-30"/>
      </g>
     </g>
    </g>
    <g id="ytick_2">
     <g id="line2d_21">
      <path d="M 108 274.067717 
L 777.6 274.067717 
" clip-path="url(#p8f27a80004)" style="fill: none; stroke-dasharray: 5.12,1.28,0.8,1.28; stroke-dashoffset: 0; stroke: #b0b0b0; stroke-width: 0.8"/>
     </g>
     <g id="line2d_22">
      <g>
       <use xlink:href="#m878f5851da" x="108" y="274.067717" style="fill: #a9a9a9; stroke: #a9a9a9; stroke-width: 0.8"/>
      </g>
     </g>
     <g id="text_11">
      <!-- 800 -->
      <g style="fill: #a9a9a9" transform="translate(81.9125 277.866935) scale(0.1 -0.1)">
       <defs>
        <path id="DejaVuSans-38" d="M 2034 2216 
Q 1584 2216 1326 1975 
Q 1069 1734 1069 1313 
Q 1069 891 1326 650 
Q 1584 409 2034 409 
Q 2484 409 2743 651 
Q 3003 894 3003 1313 
Q 3003 1734 2745 1975 
Q 2488 2216 2034 2216 
z
M 1403 2484 
Q 997 2584 770 2862 
Q 544 3141 544 3541 
Q 544 4100 942 4425 
Q 1341 4750 2034 4750 
Q 2731 4750 3128 4425 
Q 3525 4100 3525 3541 
Q 3525 3141 3298 2862 
Q 3072 2584 2669 2484 
Q 3125 2378 3379 2068 
Q 3634 1759 3634 1313 
Q 3634 634 3220 271 
Q 2806 -91 2034 -91 
Q 1263 -91 848 271 
Q 434 634 434 1313 
Q 434 1759 690 2068 
Q 947 2378 1403 2484 
z
M 1172 3481 
Q 1172 3119 1398 2916 
Q 1625 2713 2034 2713 
Q 2441 2713 2670 2916 
Q 2900 3119 2900 3481 
Q 2900 3844 2670 4047 
Q 2441 4250 2034 4250 
Q 1625 4250 1398 4047 
Q 1172 3844 1172 3481 
z
" transform="scale(0.015625)"/>
       </defs>
       <use xlink:href="#DejaVuSans-38"/>
       <use xlink:href="#DejaVuSans-30" x="63.623047"/>
       <use xlink:href="#DejaVuSans-30" x="127.246094"/>
      </g>
     </g>
    </g>
    <g id="ytick_3">
     <g id="line2d_23">
      <path d="M 108 240.293215 
L 777.6 240.293215 
" clip-path="url(#p8f27a80004)" style="fill: none; stroke-dasharray: 5.12,1.28,0.8,1.28; stroke-dashoffset: 0; stroke: #b0b0b0; stroke-width: 0.8"/>
     </g>
     <g id="line2d_24">
      <g>
       <use xlink:href="#m878f5851da" x="108" y="240.293215" style="fill: #a9a9a9; stroke: #a9a9a9; stroke-width: 0.8"/>
      </g>
     </g>
     <g id="text_12">
      <!-- 1600 -->
      <g style="fill: #a9a9a9" transform="translate(75.55 244.092434) scale(0.1 -0.1)">
       <defs>
        <path id="DejaVuSans-36" d="M 2113 2584 
Q 1688 2584 1439 2293 
Q 1191 2003 1191 1497 
Q 1191 994 1439 701 
Q 1688 409 2113 409 
Q 2538 409 2786 701 
Q 3034 994 3034 1497 
Q 3034 2003 2786 2293 
Q 2538 2584 2113 2584 
z
M 3366 4563 
L 3366 3988 
Q 3128 4100 2886 4159 
Q 2644 4219 2406 4219 
Q 1781 4219 1451 3797 
Q 1122 3375 1075 2522 
Q 1259 2794 1537 2939 
Q 1816 3084 2150 3084 
Q 2853 3084 3261 2657 
Q 3669 2231 3669 1497 
Q 3669 778 3244 343 
Q 2819 -91 2113 -91 
Q 1303 -91 875 529 
Q 447 1150 447 2328 
Q 447 3434 972 4092 
Q 1497 4750 2381 4750 
Q 2619 4750 2861 4703 
Q 3103 4656 3366 4563 
z
" transform="scale(0.015625)"/>
       </defs>
       <use xlink:href="#DejaVuSans-31"/>
       <use xlink:href="#DejaVuSans-36" x="63.623047"/>
       <use xlink:href="#DejaVuSans-30" x="127.246094"/>
       <use xlink:href="#DejaVuSans-30" x="190.869141"/>
      </g>
     </g>
    </g>
    <g id="ytick_4">
     <g id="line2d_25">
      <path d="M 108 206.518713 
L 777.6 206.518713 
" clip-path="url(#p8f27a80004)" style="fill: none; stroke-dasharray: 5.12,1.28,0.8,1.28; stroke-dashoffset: 0; stroke: #b0b0b0; stroke-width: 0.8"/>
     </g>
     <g id="line2d_26">
      <g>
       <use xlink:href="#m878f5851da" x="108" y="206.518713" style="fill: #a9a9a9; stroke: #a9a9a9; stroke-width: 0.8"/>
      </g>
     </g>
     <g id="text_13">
      <!-- 2400 -->
      <g style="fill: #a9a9a9" transform="translate(75.55 210.317932) scale(0.1 -0.1)">
       <use xlink:href="#DejaVuSans-32"/>
       <use xlink:href="#DejaVuSans-34" x="63.623047"/>
       <use xlink:href="#DejaVuSans-30" x="127.246094"/>
       <use xlink:href="#DejaVuSans-30" x="190.869141"/>
      </g>
     </g>
    </g>
    <g id="ytick_5">
     <g id="line2d_27">
      <path d="M 108 172.744212 
L 777.6 172.744212 
" clip-path="url(#p8f27a80004)" style="fill: none; stroke-dasharray: 5.12,1.28,0.8,1.28; stroke-dashoffset: 0; stroke: #b0b0b0; stroke-width: 0.8"/>
     </g>
     <g id="line2d_28">
      <g>
       <use xlink:href="#m878f5851da" x="108" y="172.744212" style="fill: #a9a9a9; stroke: #a9a9a9; stroke-width: 0.8"/>
      </g>
     </g>
     <g id="text_14">
      <!-- 3200 -->
      <g style="fill: #a9a9a9" transform="translate(75.55 176.543431) scale(0.1 -0.1)">
       <use xlink:href="#DejaVuSans-33"/>
       <use xlink:href="#DejaVuSans-32" x="63.623047"/>
       <use xlink:href="#DejaVuSans-30" x="127.246094"/>
       <use xlink:href="#DejaVuSans-30" x="190.869141"/>
      </g>
     </g>
    </g>
    <g id="ytick_6">
     <g id="line2d_29">
      <path d="M 108 138.96971 
L 777.6 138.96971 
" clip-path="url(#p8f27a80004)" style="fill: none; stroke-dasharray: 5.12,1.28,0.8,1.28; stroke-dashoffset: 0; stroke: #b0b0b0; stroke-width: 0.8"/>
     </g>
     <g id="line2d_30">
      <g>
       <use xlink:href="#m878f5851da" x="108" y="138.96971" style="fill: #a9a9a9; stroke: #a9a9a9; stroke-width: 0.8"/>
      </g>
     </g>
     <g id="text_15">
      <!-- 4000 -->
      <g style="fill: #a9a9a9" transform="translate(75.55 142.768929) scale(0.1 -0.1)">
       <use xlink:href="#DejaVuSans-34"/>
       <use xlink:href="#DejaVuSans-30" x="63.623047"/>
       <use xlink:href="#DejaVuSans-30" x="127.246094"/>
       <use xlink:href="#DejaVuSans-30" x="190.869141"/>
      </g>
     </g>
    </g>
    <g id="ytick_7">
     <g id="line2d_31">
      <path d="M 108 105.195209 
L 777.6 105.195209 
" clip-path="url(#p8f27a80004)" style="fill: none; stroke-dasharray: 5.12,1.28,0.8,1.28; stroke-dashoffset: 0; stroke: #b0b0b0; stroke-width: 0.8"/>
     </g>
     <g id="line2d_32">
      <g>
       <use xlink:href="#m878f5851da" x="108" y="105.195209" style="fill: #a9a9a9; stroke: #a9a9a9; stroke-width: 0.8"/>
      </g>
     </g>
     <g id="text_16">
      <!-- 4800 -->
      <g style="fill: #a9a9a9" transform="translate(75.55 108.994427) scale(0.1 -0.1)">
       <use xlink:href="#DejaVuSans-34"/>
       <use xlink:href="#DejaVuSans-38" x="63.623047"/>
       <use xlink:href="#DejaVuSans-30" x="127.246094"/>
       <use xlink:href="#DejaVuSans-30" x="190.869141"/>
      </g>
     </g>
    </g>
    <g id="ytick_8">
     <g id="line2d_33">
      <path d="M 108 71.420707 
L 777.6 71.420707 
" clip-path="url(#p8f27a80004)" style="fill: none; stroke-dasharray: 5.12,1.28,0.8,1.28; stroke-dashoffset: 0; stroke: #b0b0b0; stroke-width: 0.8"/>
     </g>
     <g id="line2d_34">
      <g>
       <use xlink:href="#m878f5851da" x="108" y="71.420707" style="fill: #a9a9a9; stroke: #a9a9a9; stroke-width: 0.8"/>
      </g>
     </g>
     <g id="text_17">
      <!-- 5600 -->
      <g style="fill: #a9a9a9" transform="translate(75.55 75.219926) scale(0.1 -0.1)">
       <use xlink:href="#DejaVuSans-35"/>
       <use xlink:href="#DejaVuSans-36" x="63.623047"/>
       <use xlink:href="#DejaVuSans-30" x="127.246094"/>
       <use xlink:href="#DejaVuSans-30" x="190.869141"/>
      </g>
     </g>
    </g>
   </g>
   <g id="line2d_35">
    <path d="M 138.436364 307.715564 
L 142.077803 307.420037 
L 142.68471 307.166728 
L 144.505429 306.955637 
L 148.146868 306.237929 
L 151.788308 305.942402 
L 152.395214 305.646876 
L 153.002121 305.478003 
L 153.609027 304.718077 
L 154.215934 304.295895 
L 154.822841 302.987134 
L 155.429747 302.902697 
L 156.036654 302.438298 
L 157.250467 301.847244 
L 159.678093 299.989647 
L 160.891906 299.483029 
L 161.498813 299.060848 
L 163.926439 298.005395 
L 164.533345 297.076596 
L 165.747159 296.232233 
L 166.354065 295.936706 
L 172.423131 295.092344 
L 173.030037 294.796817 
L 177.278383 294.459072 
L 179.099103 293.994672 
L 184.561262 293.276964 
L 185.168168 292.939219 
L 185.775075 292.854783 
L 186.381981 292.601474 
L 187.595794 292.390384 
L 188.202701 292.348166 
L 189.416514 292.094857 
L 190.023421 292.052639 
L 192.451047 291.461585 
L 194.271767 291.292712 
L 195.48558 291.166058 
L 196.092486 290.997185 
L 196.699393 290.954967 
L 198.520112 290.406132 
L 199.733925 290.321695 
L 200.947739 290.152823 
L 202.161552 289.899514 
L 202.768458 289.730642 
L 203.375365 288.928497 
L 205.196084 288.253007 
L 207.016804 287.788608 
L 207.623711 287.493081 
L 208.230617 287.450863 
L 211.26515 286.6065 
L 212.478963 286.522064 
L 213.692776 286.268755 
L 216.120402 285.677701 
L 216.727309 285.635483 
L 217.941122 285.086648 
L 218.548029 285.002211 
L 219.154935 284.706685 
L 225.224001 283.820104 
L 228.258533 282.975741 
L 228.86544 282.595778 
L 231.293066 281.962506 
L 233.720692 280.738181 
L 235.541412 280.315999 
L 236.148319 280.231563 
L 236.755225 279.936036 
L 237.969038 279.724946 
L 239.182851 279.17611 
L 242.217384 278.416184 
L 244.038104 277.951784 
L 244.64501 277.698475 
L 245.251917 277.571821 
L 245.858824 277.318512 
L 246.46573 277.234076 
L 247.072637 276.938549 
L 247.679543 276.769677 
L 248.893356 276.68524 
L 250.107169 276.263059 
L 251.320983 276.178623 
L 251.927889 275.883096 
L 253.141702 275.714223 
L 253.748609 275.503133 
L 254.962422 275.460915 
L 257.390048 275.165388 
L 258.603861 274.574334 
L 265.279833 271.74572 
L 265.88674 271.407975 
L 266.493646 270.774703 
L 267.707459 268.959323 
L 268.314366 268.790451 
L 268.921273 268.790451 
L 270.135086 267.90387 
L 270.741992 267.734997 
L 271.348899 267.439471 
L 271.955805 267.312816 
L 272.562712 266.763981 
L 273.169618 266.595108 
L 274.990338 265.708527 
L 276.204151 264.019802 
L 276.811058 263.639839 
L 277.417964 262.626604 
L 278.024871 261.993332 
L 278.631777 261.697805 
L 279.238684 261.528933 
L 281.66631 260.093517 
L 282.880123 259.1225 
L 283.48703 258.742536 
L 284.093936 257.855956 
L 284.700843 256.504976 
L 285.307749 255.618395 
L 285.914656 255.153996 
L 286.521563 254.900687 
L 288.949189 252.789781 
L 290.163002 251.818764 
L 290.769908 251.312146 
L 291.376815 250.510002 
L 292.590628 249.454549 
L 295.018254 247.892478 
L 295.625161 247.38586 
L 296.232067 247.259206 
L 296.838974 247.005897 
L 298.659694 245.992662 
L 300.480413 244.852773 
L 302.301133 243.079611 
L 302.90804 242.699648 
L 303.514946 242.530776 
L 304.121853 242.235249 
L 305.335666 241.433104 
L 305.942572 241.095359 
L 306.549479 241.010923 
L 311.404731 238.097872 
L 313.225451 237.126855 
L 313.832357 236.57802 
L 316.259984 235.818093 
L 316.86689 235.395912 
L 317.473797 235.269258 
L 318.68761 234.847077 
L 320.50833 234.129368 
L 322.329049 233.453878 
L 323.542862 233.242788 
L 324.756675 232.187335 
L 326.577395 231.342972 
L 327.791208 230.625264 
L 329.005021 230.287519 
L 329.611928 229.907556 
L 330.218834 229.738683 
L 332.039554 228.598794 
L 335.074087 227.881086 
L 336.894806 226.825632 
L 337.501713 226.741196 
L 338.10862 226.530106 
L 339.322433 226.276797 
L 341.143152 224.925817 
L 342.963872 224.503635 
L 343.570779 224.292545 
L 344.177685 223.828145 
L 347.819124 222.646038 
L 348.426031 222.60382 
L 349.032938 222.434947 
L 350.246751 221.92833 
L 354.495097 220.450695 
L 355.70891 220.281823 
L 356.315816 220.11295 
L 356.922723 219.817423 
L 357.529629 219.690769 
L 359.350349 218.846406 
L 361.171069 217.959826 
L 361.777975 217.537644 
L 362.384882 217.368772 
L 364.205601 216.397755 
L 365.419414 216.102228 
L 366.633228 215.468956 
L 367.847041 215.131211 
L 368.453947 215.046775 
L 369.66776 214.329067 
L 370.274667 214.202412 
L 371.48848 213.695795 
L 372.095387 213.569141 
L 372.702293 213.231396 
L 375.129919 212.851432 
L 376.343732 212.260379 
L 376.950639 211.753761 
L 377.557546 210.698308 
L 379.378265 210.360563 
L 381.805891 209.094019 
L 382.412798 208.967365 
L 386.661144 206.940895 
L 387.874957 206.60315 
L 389.08877 206.349841 
L 390.302583 205.758787 
L 390.90949 205.505478 
L 391.516396 205.421042 
L 393.944022 204.365589 
L 395.764742 203.225699 
L 396.371649 203.141263 
L 396.978555 202.930173 
L 397.585462 202.887954 
L 400.619995 202.128028 
L 401.226901 201.663629 
L 402.440714 201.241447 
L 404.261434 200.650394 
L 404.86834 200.270431 
L 405.475247 200.101558 
L 406.082154 199.679377 
L 406.68906 199.426068 
L 407.902873 198.792796 
L 410.330499 198.03287 
L 410.937406 197.737343 
L 412.758126 196.344145 
L 413.365032 196.21749 
L 414.578845 195.288692 
L 415.185752 195.162037 
L 415.792658 194.233238 
L 416.399565 193.97993 
L 417.006471 193.51553 
L 417.613378 193.431094 
L 418.827191 192.713386 
L 419.434098 192.586731 
L 420.041004 192.333423 
L 420.647911 191.869023 
L 421.254817 191.657933 
L 423.075537 190.433607 
L 425.503163 189.209281 
L 426.11007 189.124845 
L 427.323883 188.576009 
L 427.930789 188.238264 
L 428.537696 187.225029 
L 429.144603 186.676194 
L 429.751509 186.338449 
L 430.358416 186.211794 
L 431.572229 185.451868 
L 432.179135 185.325214 
L 433.392948 184.73416 
L 435.213668 183.974234 
L 436.427481 183.129871 
L 437.641294 181.863327 
L 440.675827 179.667985 
L 441.88964 178.696968 
L 442.496547 178.443659 
L 443.103453 177.768169 
L 443.71036 177.303769 
L 444.924173 176.881588 
L 446.137986 176.079444 
L 446.744893 175.783917 
L 447.351799 175.615044 
L 447.958706 175.192863 
L 448.565612 175.066209 
L 450.386332 174.095192 
L 451.600145 173.377484 
L 457.669211 171.224359 
L 458.276117 170.675524 
L 460.096837 170.000034 
L 461.31065 169.62007 
L 461.917556 169.155671 
L 464.952089 167.5936 
L 466.165902 165.229385 
L 467.379715 163.793969 
L 468.593529 163.076261 
L 470.414248 162.358553 
L 471.021155 162.274116 
L 471.628061 161.936371 
L 473.448781 161.387536 
L 475.876407 160.289864 
L 476.483314 159.909901 
L 477.697127 159.48772 
L 481.338566 157.376814 
L 481.945473 156.743542 
L 483.159286 156.11027 
L 486.800725 154.210454 
L 487.407632 153.957145 
L 488.014538 153.577182 
L 488.621445 153.450528 
L 489.228351 152.986128 
L 492.262884 152.015111 
L 492.869791 151.846239 
L 493.476697 151.550712 
L 494.083604 151.128531 
L 495.297417 150.790786 
L 496.51123 150.326386 
L 497.118136 149.861987 
L 498.33195 149.482024 
L 498.938856 149.186497 
L 499.545763 149.017624 
L 500.759576 148.173262 
L 501.973389 147.666644 
L 503.187202 146.737846 
L 504.401015 146.315664 
L 505.007922 145.809047 
L 505.614828 145.72461 
L 506.828641 144.83803 
L 508.042454 144.246976 
L 508.649361 143.993667 
L 509.256268 143.402614 
L 512.897707 142.093852 
L 514.718427 141.291707 
L 516.539146 140.742872 
L 517.752959 140.573999 
L 518.359866 140.32069 
L 518.966772 140.236254 
L 520.180586 139.729636 
L 520.787492 139.687418 
L 523.215118 138.800838 
L 525.035838 137.576512 
L 525.642744 137.323203 
L 526.856558 136.689931 
L 527.463464 136.478841 
L 531.104903 134.494589 
L 531.71181 134.367934 
L 533.53253 133.354699 
L 535.353249 132.763646 
L 535.960156 132.510337 
L 537.173969 132.21481 
L 540.208502 131.243793 
L 542.029221 130.948266 
L 544.456848 130.18834 
L 545.063754 129.935031 
L 545.670661 129.850595 
L 546.277567 129.555068 
L 547.49138 129.301759 
L 548.705194 128.879578 
L 549.3121 128.668487 
L 550.525913 128.541833 
L 551.739726 128.246306 
L 553.560446 127.950779 
L 554.167352 127.739688 
L 555.381166 127.613034 
L 558.415698 126.853108 
L 559.629511 126.557581 
L 560.236418 126.219836 
L 563.270951 125.45991 
L 563.877857 125.333255 
L 565.09167 124.911074 
L 566.91239 124.277802 
L 567.519297 124.193366 
L 569.340016 123.560094 
L 569.946923 123.560094 
L 571.160736 123.137913 
L 571.767643 122.546859 
L 572.374549 122.251332 
L 573.588362 121.871369 
L 576.015988 120.94257 
L 576.622895 120.815916 
L 577.229802 120.435952 
L 577.836708 120.309298 
L 578.443615 119.971553 
L 581.478147 119.084972 
L 582.085054 118.705009 
L 582.69196 118.578355 
L 583.298867 118.071737 
L 585.119587 117.733992 
L 586.3334 117.058502 
L 586.940306 116.383012 
L 588.154119 116.129703 
L 592.402465 115.158687 
L 593.009372 114.989814 
L 594.223185 114.947596 
L 594.830092 114.652069 
L 597.257718 114.229888 
L 597.864624 113.976579 
L 599.685344 113.72327 
L 602.11297 112.963344 
L 603.93369 112.541163 
L 605.754409 112.076763 
L 607.575129 111.527928 
L 610.609662 110.641347 
L 611.823475 110.092511 
L 613.037288 109.67033 
L 613.644195 109.205931 
L 614.858008 108.868186 
L 615.464914 108.614877 
L 616.678727 108.277132 
L 619.106354 107.179461 
L 620.927073 107.052806 
L 623.3547 106.377316 
L 623.961606 105.997353 
L 625.175419 105.659608 
L 626.996139 104.730809 
L 627.603045 104.604155 
L 628.209952 104.308628 
L 628.816859 104.26641 
L 635.492831 102.028849 
L 637.920457 101.437795 
L 638.527363 101.268923 
L 639.741176 100.720087 
L 640.348083 100.635651 
L 641.561896 100.297906 
L 642.168803 99.833506 
L 642.775709 99.53798 
L 643.382616 98.820271 
L 643.989522 98.39809 
L 645.203335 98.018127 
L 645.810242 97.553728 
L 652.486214 94.809549 
L 653.700027 94.514022 
L 655.520747 93.66966 
L 656.73456 92.951952 
L 657.341467 92.825297 
L 657.948373 92.360898 
L 659.769093 91.389881 
L 660.982906 90.798827 
L 661.589812 90.587737 
L 663.410532 89.574502 
L 664.017439 89.363411 
L 665.231252 88.645703 
L 665.838158 88.392394 
L 666.445065 87.970213 
L 667.658878 87.548031 
L 668.265784 87.421377 
L 670.693411 86.323706 
L 673.727943 85.268253 
L 674.33485 85.226035 
L 674.941757 85.057162 
L 675.548663 84.677199 
L 676.15557 84.592763 
L 676.762476 84.381672 
L 678.583196 84.043927 
L 682.224635 82.186329 
L 682.831542 81.848584 
L 683.438448 81.764148 
L 685.259168 80.793131 
L 687.079888 80.117641 
L 688.900607 79.315497 
L 691.328233 78.34448 
L 691.93514 78.175607 
L 692.542047 77.795644 
L 693.75586 77.626772 
L 694.362766 77.246809 
L 694.969673 77.20459 
L 696.183486 76.824627 
L 697.397299 76.233573 
L 698.004206 76.149137 
L 698.611112 75.895828 
L 699.218019 75.769174 
L 701.038738 74.96703 
L 701.645645 74.840375 
L 702.252551 74.587067 
L 705.287084 73.869358 
L 707.107804 73.193868 
L 709.53543 71.80067 
L 710.749243 71.336271 
L 711.35615 70.956308 
L 712.569963 70.702999 
L 713.176869 70.365254 
L 713.783776 70.238599 
L 714.997589 69.563109 
L 718.639028 67.874384 
L 720.459748 67.283331 
L 721.673561 66.861149 
L 722.280468 66.650059 
L 723.494281 66.016787 
L 724.708094 65.636824 
L 725.315 65.510169 
L 726.528814 64.961334 
L 727.13572 64.750243 
L 727.742627 64.412498 
L 728.349533 64.328062 
L 728.95644 64.116971 
L 730.170253 63.441481 
L 732.597879 62.34381 
L 733.811692 61.921628 
L 735.025505 61.288357 
L 735.632412 61.20392 
L 738.666945 59.85294 
L 739.273851 59.430759 
L 741.701477 58.628615 
L 742.308384 58.628615 
L 743.522197 58.079779 
L 745.342917 56.348836 
L 745.949823 56.053309 
L 747.163636 55.8 
L 747.163636 55.8 
" clip-path="url(#p8f27a80004)" style="fill: none; stroke: #1f77b4; stroke-width: 1.5; stroke-linecap: square"/>
   </g>
   <g id="line2d_36">
    <path d="M 139.04327 307.8 
L 140.86399 307.715564 
L 142.68471 307.673346 
L 146.326149 307.588909 
L 149.360682 307.462255 
L 151.788308 307.462255 
L 152.395214 307.293382 
L 154.822841 307.208946 
L 156.64356 306.997856 
L 158.46428 306.828983 
L 162.105719 306.660111 
L 162.712626 306.660111 
L 163.319532 306.533456 
L 165.747159 306.44902 
L 166.960972 306.364584 
L 171.816224 306.280147 
L 174.850757 306.153493 
L 182.133635 306.069057 
L 185.168168 305.942402 
L 188.809608 305.857966 
L 191.237234 305.77353 
L 196.699393 305.689094 
L 198.520112 305.646876 
L 200.340832 305.604657 
L 202.161552 305.393567 
L 205.802991 305.351349 
L 207.016804 305.266912 
L 211.26515 305.182476 
L 217.941122 304.802513 
L 222.189468 304.718077 
L 223.403281 304.63364 
L 225.224001 304.549204 
L 228.86544 304.380332 
L 231.293066 304.338114 
L 233.113786 304.169241 
L 242.824291 303.578187 
L 245.251917 303.493751 
L 249.500263 303.28266 
L 251.320983 303.198224 
L 257.390048 302.860479 
L 264.06602 302.776043 
L 266.493646 302.522734 
L 267.707459 302.438298 
L 275.597245 301.805026 
L 279.238684 301.340627 
L 281.66631 301.25619 
L 286.521563 300.622918 
L 290.163002 300.538482 
L 291.983722 300.36961 
L 293.197535 300.327392 
L 294.411348 300.200737 
L 296.232067 300.116301 
L 297.445881 299.947428 
L 300.480413 299.609683 
L 302.90804 299.525247 
L 304.121853 299.440811 
L 306.549479 299.356375 
L 307.763292 299.271938 
L 310.797825 298.976411 
L 311.404731 298.807539 
L 315.046171 298.638666 
L 318.080703 298.55423 
L 325.970489 298.089831 
L 327.791208 298.005395 
L 335.680993 297.540995 
L 339.929339 297.456559 
L 340.536246 297.329905 
L 345.391498 297.245468 
L 349.639844 297.034378 
L 356.315816 296.949941 
L 360.564162 296.738851 
L 365.419414 296.654414 
L 370.274667 296.401106 
L 374.523013 296.316669 
L 386.054237 295.598961 
L 390.90949 295.514525 
L 406.68906 294.50129 
L 410.330499 294.416854 
L 412.151219 294.374636 
L 413.971939 294.332417 
L 415.792658 294.163545 
L 420.647911 294.079109 
L 421.861724 293.868018 
L 423.075537 293.783582 
L 426.11007 293.656927 
L 427.323883 293.572491 
L 428.537696 293.488055 
L 433.999855 293.403619 
L 435.213668 293.276964 
L 437.641294 293.234746 
L 438.248201 293.108092 
L 439.462014 293.023656 
L 440.068921 292.897001 
L 441.88964 292.812565 
L 452.207052 292.179293 
L 454.027771 292.094857 
L 457.062304 291.968202 
L 465.558996 291.883766 
L 469.807342 291.672675 
L 474.662594 291.588239 
L 477.09022 291.503803 
L 479.517846 291.461585 
L 480.73166 291.33493 
L 483.159286 291.250494 
L 489.228351 290.912749 
L 492.869791 290.870531 
L 494.69051 290.701659 
L 496.51123 290.65944 
L 500.759576 290.575004 
L 503.187202 290.490568 
L 510.470081 290.406132 
L 513.504613 290.279477 
L 517.146053 290.195041 
L 518.966772 289.98395 
L 522.608212 289.941732 
L 524.428931 289.77286 
L 526.856558 289.688424 
L 534.139436 289.603987 
L 537.173969 289.477333 
L 547.49138 289.435115 
L 548.705194 289.350679 
L 550.525913 289.30846 
L 558.415698 289.224024 
L 559.629511 289.139588 
L 566.305484 289.055152 
L 568.73311 288.970715 
L 576.015988 288.928497 
L 577.229802 288.844061 
L 586.3334 288.801843 
L 588.154119 288.63297 
L 603.326783 288.548534 
L 605.147503 288.506316 
L 621.53398 288.42188 
L 623.961606 288.337443 
L 634.279017 288.253007 
L 635.492831 288.168571 
L 638.527363 288.084135 
L 640.348083 287.915262 
L 643.382616 287.830826 
L 645.810242 287.74639 
L 649.451681 287.661953 
L 651.272401 287.619735 
L 653.700027 287.535299 
L 655.520747 287.493081 
L 658.55528 287.408645 
L 659.769093 287.324208 
L 663.410532 287.239772 
L 666.445065 287.113118 
L 667.658878 287.0709 
L 668.872691 286.986463 
L 670.693411 286.944245 
L 673.121037 286.859809 
L 675.548663 286.775373 
L 683.438448 286.690937 
L 685.866075 286.6065 
L 690.721327 286.522064 
L 694.969673 286.310973 
L 700.431832 286.226537 
L 701.645645 286.142101 
L 712.569963 286.057665 
L 714.390682 286.015446 
L 717.425215 285.973228 
L 719.852841 285.71992 
L 721.673561 285.677701 
L 725.315 285.593265 
L 731.990973 285.213302 
L 734.418599 285.128866 
L 736.846225 285.04443 
L 740.487664 284.959993 
L 741.701477 284.875557 
L 744.129104 284.791121 
L 746.55673 284.537812 
L 747.163636 284.537812 
L 747.163636 284.537812 
" clip-path="url(#p8f27a80004)" style="fill: none; stroke: #ff7f0e; stroke-width: 1.5; stroke-linecap: square"/>
   </g>
   <g id="patch_3">
    <path d="M 108 320.4 
L 108 43.2 
" style="fill: none; stroke: #a9a9a9; stroke-width: 0.8; stroke-linejoin: miter; stroke-linecap: square"/>
   </g>
   <g id="patch_4">
    <path d="M 777.6 320.4 
L 777.6 43.2 
" style="fill: none"/>
   </g>
   <g id="patch_5">
    <path d="M 108 320.4 
L 777.6 320.4 
" style="fill: none; stroke: #a9a9a9; stroke-width: 0.8; stroke-linejoin: miter; stroke-linecap: square"/>
   </g>
   <g id="patch_6">
    <path d="M 108 43.2 
L 777.6 43.2 
" style="fill: none"/>
   </g>
   <g id="text_18">
    <!-- get_subscribe history -->
    <g style="fill: #a9a9a9" transform="translate(378.6075 37.2) scale(0.12 -0.12)">
     <defs>
      <path id="DejaVuSans-67" d="M 2906 1791 
Q 2906 2416 2648 2759 
Q 2391 3103 1925 3103 
Q 1463 3103 1205 2759 
Q 947 2416 947 1791 
Q 947 1169 1205 825 
Q 1463 481 1925 481 
Q 2391 481 2648 825 
Q 2906 1169 2906 1791 
z
M 3481 434 
Q 3481 -459 3084 -895 
Q 2688 -1331 1869 -1331 
Q 1566 -1331 1297 -1286 
Q 1028 -1241 775 -1147 
L 775 -588 
Q 1028 -725 1275 -790 
Q 1522 -856 1778 -856 
Q 2344 -856 2625 -561 
Q 2906 -266 2906 331 
L 2906 616 
Q 2728 306 2450 153 
Q 2172 0 1784 0 
Q 1141 0 747 490 
Q 353 981 353 1791 
Q 353 2603 747 3093 
Q 1141 3584 1784 3584 
Q 2172 3584 2450 3431 
Q 2728 3278 2906 2969 
L 2906 3500 
L 3481 3500 
L 3481 434 
z
" transform="scale(0.015625)"/>
      <path id="DejaVuSans-65" d="M 3597 1894 
L 3597 1613 
L 953 1613 
Q 991 1019 1311 708 
Q 1631 397 2203 397 
Q 2534 397 2845 478 
Q 3156 559 3463 722 
L 3463 178 
Q 3153 47 2828 -22 
Q 2503 -91 2169 -91 
Q 1331 -91 842 396 
Q 353 884 353 1716 
Q 353 2575 817 3079 
Q 1281 3584 2069 3584 
Q 2775 3584 3186 3129 
Q 3597 2675 3597 1894 
z
M 3022 2063 
Q 3016 2534 2758 2815 
Q 2500 3097 2075 3097 
Q 1594 3097 1305 2825 
Q 1016 2553 972 2059 
L 3022 2063 
z
" transform="scale(0.015625)"/>
      <path id="DejaVuSans-74" d="M 1172 4494 
L 1172 3500 
L 2356 3500 
L 2356 3053 
L 1172 3053 
L 1172 1153 
Q 1172 725 1289 603 
Q 1406 481 1766 481 
L 2356 481 
L 2356 0 
L 1766 0 
Q 1100 0 847 248 
Q 594 497 594 1153 
L 594 3053 
L 172 3053 
L 172 3500 
L 594 3500 
L 594 4494 
L 1172 4494 
z
" transform="scale(0.015625)"/>
      <path id="DejaVuSans-5f" d="M 3263 -1063 
L 3263 -1509 
L -63 -1509 
L -63 -1063 
L 3263 -1063 
z
" transform="scale(0.015625)"/>
      <path id="DejaVuSans-73" d="M 2834 3397 
L 2834 2853 
Q 2591 2978 2328 3040 
Q 2066 3103 1784 3103 
Q 1356 3103 1142 2972 
Q 928 2841 928 2578 
Q 928 2378 1081 2264 
Q 1234 2150 1697 2047 
L 1894 2003 
Q 2506 1872 2764 1633 
Q 3022 1394 3022 966 
Q 3022 478 2636 193 
Q 2250 -91 1575 -91 
Q 1294 -91 989 -36 
Q 684 19 347 128 
L 347 722 
Q 666 556 975 473 
Q 1284 391 1588 391 
Q 1994 391 2212 530 
Q 2431 669 2431 922 
Q 2431 1156 2273 1281 
Q 2116 1406 1581 1522 
L 1381 1569 
Q 847 1681 609 1914 
Q 372 2147 372 2553 
Q 372 3047 722 3315 
Q 1072 3584 1716 3584 
Q 2034 3584 2315 3537 
Q 2597 3491 2834 3397 
z
" transform="scale(0.015625)"/>
      <path id="DejaVuSans-75" d="M 544 1381 
L 544 3500 
L 1119 3500 
L 1119 1403 
Q 1119 906 1312 657 
Q 1506 409 1894 409 
Q 2359 409 2629 706 
Q 2900 1003 2900 1516 
L 2900 3500 
L 3475 3500 
L 3475 0 
L 2900 0 
L 2900 538 
Q 2691 219 2414 64 
Q 2138 -91 1772 -91 
Q 1169 -91 856 284 
Q 544 659 544 1381 
z
M 1991 3584 
L 1991 3584 
z
" transform="scale(0.015625)"/>
      <path id="DejaVuSans-62" d="M 3116 1747 
Q 3116 2381 2855 2742 
Q 2594 3103 2138 3103 
Q 1681 3103 1420 2742 
Q 1159 2381 1159 1747 
Q 1159 1113 1420 752 
Q 1681 391 2138 391 
Q 2594 391 2855 752 
Q 3116 1113 3116 1747 
z
M 1159 2969 
Q 1341 3281 1617 3432 
Q 1894 3584 2278 3584 
Q 2916 3584 3314 3078 
Q 3713 2572 3713 1747 
Q 3713 922 3314 415 
Q 2916 -91 2278 -91 
Q 1894 -91 1617 61 
Q 1341 213 1159 525 
L 1159 0 
L 581 0 
L 581 4863 
L 1159 4863 
L 1159 2969 
z
" transform="scale(0.015625)"/>
      <path id="DejaVuSans-63" d="M 3122 3366 
L 3122 2828 
Q 2878 2963 2633 3030 
Q 2388 3097 2138 3097 
Q 1578 3097 1268 2742 
Q 959 2388 959 1747 
Q 959 1106 1268 751 
Q 1578 397 2138 397 
Q 2388 397 2633 464 
Q 2878 531 3122 666 
L 3122 134 
Q 2881 22 2623 -34 
Q 2366 -91 2075 -91 
Q 1284 -91 818 406 
Q 353 903 353 1747 
Q 353 2603 823 3093 
Q 1294 3584 2113 3584 
Q 2378 3584 2631 3529 
Q 2884 3475 3122 3366 
z
" transform="scale(0.015625)"/>
      <path id="DejaVuSans-72" d="M 2631 2963 
Q 2534 3019 2420 3045 
Q 2306 3072 2169 3072 
Q 1681 3072 1420 2755 
Q 1159 2438 1159 1844 
L 1159 0 
L 581 0 
L 581 3500 
L 1159 3500 
L 1159 2956 
Q 1341 3275 1631 3429 
Q 1922 3584 2338 3584 
Q 2397 3584 2469 3576 
Q 2541 3569 2628 3553 
L 2631 2963 
z
" transform="scale(0.015625)"/>
      <path id="DejaVuSans-69" d="M 603 3500 
L 1178 3500 
L 1178 0 
L 603 0 
L 603 3500 
z
M 603 4863 
L 1178 4863 
L 1178 4134 
L 603 4134 
L 603 4863 
z
" transform="scale(0.015625)"/>
      <path id="DejaVuSans-20" transform="scale(0.015625)"/>
      <path id="DejaVuSans-68" d="M 3513 2113 
L 3513 0 
L 2938 0 
L 2938 2094 
Q 2938 2591 2744 2837 
Q 2550 3084 2163 3084 
Q 1697 3084 1428 2787 
Q 1159 2491 1159 1978 
L 1159 0 
L 581 0 
L 581 4863 
L 1159 4863 
L 1159 2956 
Q 1366 3272 1645 3428 
Q 1925 3584 2291 3584 
Q 2894 3584 3203 3211 
Q 3513 2838 3513 2113 
z
" transform="scale(0.015625)"/>
      <path id="DejaVuSans-6f" d="M 1959 3097 
Q 1497 3097 1228 2736 
Q 959 2375 959 1747 
Q 959 1119 1226 758 
Q 1494 397 1959 397 
Q 2419 397 2687 759 
Q 2956 1122 2956 1747 
Q 2956 2369 2687 2733 
Q 2419 3097 1959 3097 
z
M 1959 3584 
Q 2709 3584 3137 3096 
Q 3566 2609 3566 1747 
Q 3566 888 3137 398 
Q 2709 -91 1959 -91 
Q 1206 -91 779 398 
Q 353 888 353 1747 
Q 353 2609 779 3096 
Q 1206 3584 1959 3584 
z
" transform="scale(0.015625)"/>
      <path id="DejaVuSans-79" d="M 2059 -325 
Q 1816 -950 1584 -1140 
Q 1353 -1331 966 -1331 
L 506 -1331 
L 506 -850 
L 844 -850 
Q 1081 -850 1212 -737 
Q 1344 -625 1503 -206 
L 1606 56 
L 191 3500 
L 800 3500 
L 1894 763 
L 2988 3500 
L 3597 3500 
L 2059 -325 
z
" transform="scale(0.015625)"/>
     </defs>
     <use xlink:href="#DejaVuSans-67"/>
     <use xlink:href="#DejaVuSans-65" x="63.476562"/>
     <use xlink:href="#DejaVuSans-74" x="125"/>
     <use xlink:href="#DejaVuSans-5f" x="164.208984"/>
     <use xlink:href="#DejaVuSans-73" x="214.208984"/>
     <use xlink:href="#DejaVuSans-75" x="266.308594"/>
     <use xlink:href="#DejaVuSans-62" x="329.6875"/>
     <use xlink:href="#DejaVuSans-73" x="393.164062"/>
     <use xlink:href="#DejaVuSans-63" x="445.263672"/>
     <use xlink:href="#DejaVuSans-72" x="500.244141"/>
     <use xlink:href="#DejaVuSans-69" x="541.357422"/>
     <use xlink:href="#DejaVuSans-62" x="569.140625"/>
     <use xlink:href="#DejaVuSans-65" x="632.617188"/>
     <use xlink:href="#DejaVuSans-20" x="694.140625"/>
     <use xlink:href="#DejaVuSans-68" x="725.927734"/>
     <use xlink:href="#DejaVuSans-69" x="789.306641"/>
     <use xlink:href="#DejaVuSans-73" x="817.089844"/>
     <use xlink:href="#DejaVuSans-74" x="869.189453"/>
     <use xlink:href="#DejaVuSans-6f" x="908.398438"/>
     <use xlink:href="#DejaVuSans-72" x="969.580078"/>
     <use xlink:href="#DejaVuSans-79" x="1010.693359"/>
    </g>
   </g>
   <g id="legend_1">
    <g id="line2d_37">
     <path d="M 815.08 328.498438 
L 825.08 328.498438 
L 835.08 328.498438 
" style="fill: none; stroke: #1f77b4; stroke-width: 1.5; stroke-linecap: square"/>
    </g>
    <g id="text_19">
     <!-- star -->
     <g style="fill: #a9a9a9" transform="translate(843.08 331.998438) scale(0.1 -0.1)">
      <defs>
       <path id="DejaVuSans-61" d="M 2194 1759 
Q 1497 1759 1228 1600 
Q 959 1441 959 1056 
Q 959 750 1161 570 
Q 1363 391 1709 391 
Q 2188 391 2477 730 
Q 2766 1069 2766 1631 
L 2766 1759 
L 2194 1759 
z
M 3341 1997 
L 3341 0 
L 2766 0 
L 2766 531 
Q 2569 213 2275 61 
Q 1981 -91 1556 -91 
Q 1019 -91 701 211 
Q 384 513 384 1019 
Q 384 1609 779 1909 
Q 1175 2209 1959 2209 
L 2766 2209 
L 2766 2266 
Q 2766 2663 2505 2880 
Q 2244 3097 1772 3097 
Q 1472 3097 1187 3025 
Q 903 2953 641 2809 
L 641 3341 
Q 956 3463 1253 3523 
Q 1550 3584 1831 3584 
Q 2591 3584 2966 3190 
Q 3341 2797 3341 1997 
z
" transform="scale(0.015625)"/>
      </defs>
      <use xlink:href="#DejaVuSans-73"/>
      <use xlink:href="#DejaVuSans-74" x="52.099609"/>
      <use xlink:href="#DejaVuSans-61" x="91.308594"/>
      <use xlink:href="#DejaVuSans-72" x="152.587891"/>
     </g>
    </g>
    <g id="line2d_38">
     <path d="M 815.08 343.176562 
L 825.08 343.176562 
L 835.08 343.176562 
" style="fill: none; stroke: #ff7f0e; stroke-width: 1.5; stroke-linecap: square"/>
    </g>
    <g id="text_20">
     <!-- fork -->
     <g style="fill: #a9a9a9" transform="translate(843.08 346.676562) scale(0.1 -0.1)">
      <defs>
       <path id="DejaVuSans-66" d="M 2375 4863 
L 2375 4384 
L 1825 4384 
Q 1516 4384 1395 4259 
Q 1275 4134 1275 3809 
L 1275 3500 
L 2222 3500 
L 2222 3053 
L 1275 3053 
L 1275 0 
L 697 0 
L 697 3053 
L 147 3053 
L 147 3500 
L 697 3500 
L 697 3744 
Q 697 4328 969 4595 
Q 1241 4863 1831 4863 
L 2375 4863 
z
" transform="scale(0.015625)"/>
       <path id="DejaVuSans-6b" d="M 581 4863 
L 1159 4863 
L 1159 1991 
L 2875 3500 
L 3609 3500 
L 1753 1863 
L 3688 0 
L 2938 0 
L 1159 1709 
L 1159 0 
L 581 0 
L 581 4863 
z
" transform="scale(0.015625)"/>
      </defs>
      <use xlink:href="#DejaVuSans-66"/>
      <use xlink:href="#DejaVuSans-6f" x="35.205078"/>
      <use xlink:href="#DejaVuSans-72" x="96.386719"/>
      <use xlink:href="#DejaVuSans-6b" x="137.5"/>
     </g>
    </g>
   </g>
  </g>
 </g>
 <defs>
  <clipPath id="p8f27a80004">
   <rect x="108" y="43.2" width="669.6" height="277.2"/>
  </clipPath>
 </defs>
</svg>
